<svg width="20" height="20" viewBox="0 0 20 20" fill="none" xmlns="http://www.w3.org/2000/svg">
<rect width="20" height="20" fill="#F5F5F5"/>
<rect x="-1918" y="-966" width="4768" height="19498" stroke="#0057FF" stroke-width="26"/>
<rect width="1440" height="990" transform="translate(-1166 -239)" fill="white"/>
<rect x="-13.5" y="-46.5" width="48" height="81" fill="white"/>
<rect x="-13.5" y="-46.5" width="48" height="81" stroke="#BDBDBD"/>
<path fill-rule="evenodd" clip-rule="evenodd" d="M13.6667 5C14.1067 5 14.48 5.2625 14.6133 5.625L16 9.375V14.375C16 14.5408 15.9298 14.6997 15.8047 14.8169C15.6797 14.9342 15.5101 15 15.3333 15H14.6667C14.4899 15 14.3203 14.9342 14.1953 14.8169C14.0702 14.6997 14 14.5408 14 14.375V13.75H6V14.375C6 14.5408 5.92976 14.6997 5.80474 14.8169C5.67971 14.9342 5.51014 15 5.33333 15H4.66667C4.48986 15 4.32029 14.9342 4.19526 14.8169C4.07024 14.6997 4 14.5408 4 14.375V9.375L5.38667 5.625C5.52 5.2625 5.89333 5 6.33333 5H13.6667ZM6.33333 5.9375L5.33333 8.75H14.6667L13.6667 5.9375H6.33333ZM12.9596 11.6004C13.1471 11.7762 13.4015 11.875 13.6667 11.875C13.9319 11.875 14.1862 11.7762 14.3738 11.6004C14.5613 11.4246 14.6667 11.1861 14.6667 10.9375C14.6667 10.6889 14.5613 10.4504 14.3738 10.2746C14.1862 10.0988 13.9319 10 13.6667 10C13.4015 10 13.1471 10.0988 12.9596 10.2746C12.772 10.4504 12.6667 10.6889 12.6667 10.9375C12.6667 11.1861 12.772 11.4246 12.9596 11.6004ZM5.62623 11.6004C5.81376 11.7762 6.06812 11.875 6.33333 11.875C6.59855 11.875 6.8529 11.7762 7.04044 11.6004C7.22798 11.4246 7.33333 11.1861 7.33333 10.9375C7.33333 10.6889 7.22798 10.4504 7.04044 10.2746C6.8529 10.0988 6.59855 10 6.33333 10C6.06812 10 5.81376 10.0988 5.62623 10.2746C5.43869 10.4504 5.33333 10.6889 5.33333 10.9375C5.33333 11.1861 5.43869 11.4246 5.62623 11.6004Z" fill="#BDBDBD"/>
<path fill-rule="evenodd" clip-rule="evenodd" d="M20 10C20 15.5228 15.5228 20 10 20C4.47715 20 0 15.5228 0 10C0 4.47715 4.47715 0 10 0C15.5228 0 20 4.47715 20 10ZM18.5 10C18.5 14.6944 14.6944 18.5 10 18.5C5.30558 18.5 1.5 14.6944 1.5 10C1.5 5.30558 5.30558 1.5 10 1.5C14.6944 1.5 18.5 5.30558 18.5 10Z" fill="#BDBDBD"/>
<path d="M5.33333 8.75L6.33333 5.9375H13.6667L14.6667 8.75H5.33333Z" fill="white"/>
</svg>
