<svg width="20" height="20" viewBox="0 0 20 20" fill="none" xmlns="http://www.w3.org/2000/svg">
<rect width="20" height="20" fill="#F5F5F5"/>
<rect x="-1918" y="-1128" width="4768" height="19498" stroke="#0057FF" stroke-width="26"/>
<rect width="1440" height="990" transform="translate(-1166 -401)" fill="white"/>
<rect x="-13.5" y="-46.5" width="48" height="81" stroke="#BDBDBD"/>
<path fill-rule="evenodd" clip-rule="evenodd" d="M10 18.5C14.6944 18.5 18.5 14.6944 18.5 10C18.5 5.30558 14.6944 1.5 10 1.5C5.30558 1.5 1.5 5.30558 1.5 10C1.5 14.6944 5.30558 18.5 10 18.5ZM13.6667 5C14.1067 5 14.48 5.2625 14.6133 5.625L16 9.375V14.375C16 14.5408 15.9298 14.6997 15.8047 14.8169C15.6797 14.9342 15.5101 15 15.3333 15H14.6667C14.4899 15 14.3203 14.9342 14.1953 14.8169C14.0702 14.6997 14 14.5408 14 14.375V13.75H6V14.375C6 14.5408 5.92976 14.6997 5.80474 14.8169C5.67971 14.9342 5.51014 15 5.33333 15H4.66667C4.48986 15 4.32029 14.9342 4.19526 14.8169C4.07024 14.6997 4 14.5408 4 14.375V9.375L5.38667 5.625C5.52 5.2625 5.89333 5 6.33333 5H13.6667Z" fill="#69ACC9"/>
<path fill-rule="evenodd" clip-rule="evenodd" d="M10 20C15.5228 20 20 15.5228 20 10C20 4.47715 15.5228 0 10 0C4.47715 0 0 4.47715 0 10C0 15.5228 4.47715 20 10 20ZM18.5 10C18.5 14.6944 14.6944 18.5 10 18.5C5.30558 18.5 1.5 14.6944 1.5 10C1.5 5.30558 5.30558 1.5 10 1.5C14.6944 1.5 18.5 5.30558 18.5 10Z" fill="#69ACC9"/>
<path d="M5.33333 8.75L6.33333 5.9375H13.6667L14.6667 8.75H5.33333Z" fill="#69ACC9"/>
<path d="M13.6667 11.875C13.4015 11.875 13.1471 11.7762 12.9596 11.6004C12.772 11.4246 12.6667 11.1861 12.6667 10.9375C12.6667 10.6889 12.772 10.4504 12.9596 10.2746C13.1471 10.0988 13.4015 10 13.6667 10C13.9319 10 14.1862 10.0988 14.3738 10.2746C14.5613 10.4504 14.6667 10.6889 14.6667 10.9375C14.6667 11.1861 14.5613 11.4246 14.3738 11.6004C14.1862 11.7762 13.9319 11.875 13.6667 11.875Z" fill="#69ACC9"/>
<path d="M6.33333 11.875C6.06812 11.875 5.81376 11.7762 5.62623 11.6004C5.43869 11.4246 5.33333 11.1861 5.33333 10.9375C5.33333 10.6889 5.43869 10.4504 5.62623 10.2746C5.81376 10.0988 6.06812 10 6.33333 10C6.59855 10 6.8529 10.0988 7.04044 10.2746C7.22798 10.4504 7.33333 10.6889 7.33333 10.9375C7.33333 11.1861 7.22798 11.4246 7.04044 11.6004C6.8529 11.7762 6.59855 11.875 6.33333 11.875Z" fill="#69ACC9"/>
<path fill-rule="evenodd" clip-rule="evenodd" d="M14.6133 5.625C14.48 5.2625 14.1067 5 13.6667 5H6.33333C5.89333 5 5.52 5.2625 5.38667 5.625L4 9.375V14.375C4 14.5408 4.07024 14.6997 4.19526 14.8169C4.32029 14.9342 4.48986 15 4.66667 15H5.33333C5.51014 15 5.67971 14.9342 5.80474 14.8169C5.92976 14.6997 6 14.5408 6 14.375V13.75H14V14.375C14 14.5408 14.0702 14.6997 14.1953 14.8169C14.3203 14.9342 14.4899 15 14.6667 15H15.3333C15.5101 15 15.6797 14.9342 15.8047 14.8169C15.9298 14.6997 16 14.5408 16 14.375V9.375L14.6133 5.625ZM6.33333 5.9375L5.33333 8.75H14.6667L13.6667 5.9375H6.33333ZM12.9596 11.6004C13.1471 11.7762 13.4015 11.875 13.6667 11.875C13.9319 11.875 14.1862 11.7762 14.3738 11.6004C14.5613 11.4246 14.6667 11.1861 14.6667 10.9375C14.6667 10.6889 14.5613 10.4504 14.3738 10.2746C14.1862 10.0988 13.9319 10 13.6667 10C13.4015 10 13.1471 10.0988 12.9596 10.2746C12.772 10.4504 12.6667 10.6889 12.6667 10.9375C12.6667 11.1861 12.772 11.4246 12.9596 11.6004ZM5.62623 11.6004C5.81376 11.7762 6.06812 11.875 6.33333 11.875C6.59855 11.875 6.8529 11.7762 7.04044 11.6004C7.22798 11.4246 7.33333 11.1861 7.33333 10.9375C7.33333 10.6889 7.22798 10.4504 7.04044 10.2746C6.8529 10.0988 6.59855 10 6.33333 10C6.06812 10 5.81376 10.0988 5.62623 10.2746C5.43869 10.4504 5.33333 10.6889 5.33333 10.9375C5.33333 11.1861 5.43869 11.4246 5.62623 11.6004Z" fill="white"/>
</svg>
