<svg width="428" height="63" viewBox="0 0 428 63" fill="none" xmlns="http://www.w3.org/2000/svg">
<g clip-path="url(#clip0_76_165)">
<path d="M181.15 6.20025L183.94 3.47025C184.3 3.11692 184.667 3.11359 185.04 3.46025L185.35 3.74025C185.414 3.80094 185.464 3.87388 185.499 3.95466C185.533 4.03545 185.551 4.12239 185.551 4.21025C185.551 4.29811 185.533 4.38506 185.499 4.46584C185.464 4.54662 185.414 4.61956 185.35 4.68025L183.2 6.67025C183.082 6.78169 183.012 6.93416 183.004 7.09494C182.997 7.25573 183.053 7.41201 183.16 7.53025L185.61 10.2103C186.07 10.7169 186.017 11.1636 185.45 11.5503L185.14 11.7503C185.023 11.832 184.88 11.8697 184.737 11.8569C184.595 11.8442 184.461 11.7816 184.36 11.6803L181.43 8.74025C181.364 8.67466 181.281 8.62875 181.19 8.60791C181.099 8.58708 181.004 8.5922 180.917 8.62266C180.83 8.65312 180.754 8.70766 180.698 8.77986C180.642 8.85207 180.608 8.93893 180.6 9.03025L180.41 11.0103C180.398 11.1381 180.356 11.2614 180.288 11.3706C180.221 11.4798 180.129 11.5721 180.02 11.6403C179.567 11.9203 179.157 11.8836 178.79 11.5303C178.724 11.4671 178.671 11.3901 178.635 11.3041C178.598 11.2182 178.58 11.125 178.58 11.0303L178.59 0.600254C178.589 0.466851 178.638 0.337863 178.726 0.238154C178.815 0.138445 178.938 0.0750738 179.07 0.0602535L179.52 0.0102543C180.22 -0.0630791 180.563 0.25692 180.55 0.970253L180.43 5.89025C180.417 6.57025 180.657 6.67359 181.15 6.20025Z" fill="#EFAA32"/>
<path d="M321.84 0.0202637H321.72C321.217 0.0202637 320.81 0.427686 320.81 0.930265V10.8703C320.81 11.3728 321.217 11.7803 321.72 11.7803H321.84C322.343 11.7803 322.75 11.3728 322.75 10.8703V0.930265C322.75 0.427686 322.343 0.0202637 321.84 0.0202637Z" fill="#EFAA32"/>
<path d="M95.8036 2.18208C96.3833 2.29687 96.9368 1.96829 97.0397 1.4482C97.1427 0.928103 96.7563 0.413433 96.1766 0.298651C95.5969 0.183869 95.0435 0.512441 94.9405 1.03254C94.8375 1.55263 95.224 2.0673 95.8036 2.18208Z" fill="#EFAA32"/>
<path d="M139.93 2.22022C139.317 2.24022 138.917 1.98022 138.73 1.44022C138.692 1.33073 138.676 1.2145 138.684 1.09871C138.692 0.982915 138.724 0.870006 138.777 0.766944C138.831 0.663881 138.905 0.572848 138.994 0.499459C139.084 0.426069 139.188 0.371879 139.3 0.340226C139.867 0.180226 140.31 0.303558 140.63 0.710225C140.738 0.845285 140.806 1.00774 140.827 1.17934C140.847 1.35095 140.82 1.52493 140.747 1.68175C140.674 1.83857 140.56 1.97202 140.415 2.06714C140.271 2.16226 140.103 2.21527 139.93 2.22022Z" fill="#EFAA32"/>
<path d="M257.23 2.23024C257.777 2.23024 258.22 1.78701 258.22 1.24024C258.22 0.693482 257.777 0.250244 257.23 0.250244C256.683 0.250244 256.24 0.693482 256.24 1.24024C256.24 1.78701 256.683 2.23024 257.23 2.23024Z" fill="#EFAA32"/>
<path d="M327.23 2.24023C327.782 2.24023 328.23 1.79252 328.23 1.24023C328.23 0.68795 327.782 0.240234 327.23 0.240234C326.678 0.240234 326.23 0.68795 326.23 1.24023C326.23 1.79252 326.678 2.24023 327.23 2.24023Z" fill="#EFAA32"/>
<path d="M343.22 2.28025C343.778 2.28025 344.23 1.82806 344.23 1.27025C344.23 0.712445 343.778 0.260254 343.22 0.260254C342.662 0.260254 342.21 0.712445 342.21 1.27025C342.21 1.82806 342.662 2.28025 343.22 2.28025Z" fill="#EFAA32"/>
<path d="M82.6401 5.1403L82.6501 10.7603C82.6501 11.287 82.3901 11.597 81.8701 11.6903L81.4601 11.7603C81.0401 11.8403 80.8301 11.6636 80.8301 11.2303L80.8201 1.5303C80.8197 1.39888 80.8482 1.26898 80.9034 1.14956C80.9587 1.03013 81.0394 0.92401 81.1402 0.838487C81.2409 0.752965 81.3592 0.69007 81.4869 0.654133C81.6146 0.618195 81.7488 0.610066 81.8801 0.630304C82.1667 0.670304 82.4001 0.810304 82.5801 1.0503C83.6934 2.50364 84.7167 4.07031 85.6501 5.75031C85.694 5.83025 85.7581 5.89723 85.8361 5.94455C85.9141 5.99186 86.0031 6.01783 86.0943 6.01986C86.1855 6.02188 86.2756 5.99989 86.3556 5.95609C86.4356 5.91229 86.5027 5.84822 86.5501 5.7703C87.4501 4.31697 88.3467 3.0003 89.2401 1.8203C90.7801 -0.233029 91.5501 0.0236385 91.5501 2.59031L91.5601 10.8103C91.5601 11.477 91.2267 11.797 90.5601 11.7703L90.0301 11.7603C89.8946 11.7552 89.7663 11.6974 89.6715 11.5988C89.5766 11.5002 89.5224 11.3684 89.5201 11.2303L89.4701 5.5203C89.4701 4.83364 89.2801 4.77697 88.9001 5.35031L87.0101 8.2403C86.9101 8.39676 86.7721 8.52535 86.609 8.6141C86.4459 8.70285 86.263 8.74886 86.0773 8.74787C85.8916 8.74687 85.7092 8.69888 85.5471 8.60839C85.385 8.51789 85.2484 8.38782 85.1501 8.2303L83.1001 5.00031C82.7934 4.51364 82.6401 4.5603 82.6401 5.1403Z" fill="#EFAA32"/>
<path d="M211.2 7.86036L213.89 1.04036C213.967 0.851293 214.113 0.698866 214.297 0.614988C214.482 0.53111 214.691 0.522285 214.88 0.590362L215.39 0.77036C215.475 0.797907 215.552 0.842729 215.619 0.901973C215.685 0.961218 215.738 1.03359 215.775 1.11448C215.811 1.19537 215.831 1.28301 215.832 1.37183C215.833 1.46064 215.815 1.54869 215.78 1.63036L211.63 11.3304C211.558 11.5 211.438 11.6448 211.284 11.7465C211.13 11.8482 210.95 11.9024 210.765 11.9024C210.581 11.9024 210.4 11.8482 210.247 11.7465C210.093 11.6448 209.972 11.5 209.9 11.3304L205.94 2.02036C205.836 1.77616 205.832 1.50073 205.929 1.25369C206.027 1.00665 206.217 0.807863 206.46 0.700361L206.73 0.570362C206.806 0.53611 206.888 0.51748 206.972 0.515548C207.055 0.513617 207.138 0.528422 207.216 0.559108C207.294 0.589795 207.366 0.635752 207.427 0.694326C207.487 0.7529 207.536 0.822929 207.57 0.900362L210.55 7.87036C210.777 8.39703 210.994 8.39369 211.2 7.86036Z" fill="#EFAA32"/>
<path d="M316.65 2.92042C308.7 0.100416 309.27 12.5004 316.36 9.62042C316.484 9.57059 316.616 9.54759 316.749 9.55293C316.883 9.55827 317.013 9.59184 317.132 9.65141C317.251 9.71098 317.356 9.79519 317.44 9.89846C317.525 10.0017 317.586 10.1217 317.62 10.2504C317.733 10.7037 317.5 11.1237 316.92 11.5104C316.795 11.5898 316.652 11.6473 316.5 11.6804C312.867 12.4937 310.42 11.4237 309.16 8.47042C307.08 3.58042 312.28 -1.23959 317.07 1.12041C317.603 1.38041 317.757 1.78375 317.53 2.33042L317.42 2.58042C317.361 2.72364 317.248 2.83851 317.105 2.90167C316.962 2.96483 316.799 2.97153 316.65 2.92042Z" fill="#EFAA32"/>
<path d="M232.12 5.91037L232.13 9.32037C232.13 9.86037 232.397 10.1204 232.93 10.1004C233.317 10.087 233.67 10.1837 233.99 10.3904C234.357 10.6304 234.374 10.8904 234.04 11.1704C233.274 11.817 232.407 11.977 231.44 11.6504C230.627 11.3704 230.22 10.8004 230.22 9.94037V5.92037C230.22 5.57371 230.067 5.31704 229.76 5.15037C229.62 5.07704 229.467 5.03371 229.3 5.02037C228.954 5.00704 228.717 4.83371 228.59 4.50037C228.53 4.36037 228.534 4.22037 228.6 4.08037C228.727 3.82704 228.93 3.67704 229.21 3.63037C229.95 3.51704 230.327 3.05704 230.34 2.25037C230.342 2.08418 230.393 1.92218 230.486 1.78487C230.58 1.64757 230.712 1.54114 230.866 1.47904C231.021 1.41695 231.19 1.40198 231.352 1.43604C231.515 1.4701 231.664 1.55165 231.78 1.67037C232.047 1.93704 232.17 2.27371 232.15 2.68037C232.13 3.17371 232.367 3.44704 232.86 3.50037L233.54 3.57037C233.92 3.61037 234.147 3.81704 234.22 4.19037C234.24 4.28371 234.237 4.38037 234.21 4.48037C234.13 4.80704 233.924 4.99371 233.59 5.04037L232.76 5.16037C232.334 5.22704 232.12 5.47704 232.12 5.91037Z" fill="#EFAA32"/>
<path d="M14.8202 11.2202C17.1011 11.2202 18.9502 9.37114 18.9502 7.0902C18.9502 4.80927 17.1011 2.96021 14.8202 2.96021C12.5392 2.96021 10.6902 4.80927 10.6902 7.0902C10.6902 9.37114 12.5392 11.2202 14.8202 11.2202Z" fill="#EFAA32"/>
<path d="M103.22 3.81033C104.56 2.44033 107.34 3.08033 107.65 5.13033C107.91 6.86367 107.97 8.757 107.83 10.8103C107.79 11.3837 107.48 11.687 106.9 11.7203L106.63 11.7303C106.536 11.7357 106.441 11.722 106.352 11.6899C106.263 11.6577 106.182 11.6079 106.113 11.5435C106.044 11.479 105.988 11.4011 105.95 11.3147C105.912 11.2282 105.891 11.1349 105.89 11.0403L105.85 6.39033C105.843 5.57033 105.437 5.08033 104.63 4.92033C104.157 4.82033 103.667 4.91033 103.16 5.19033C102.924 5.321 102.726 5.51197 102.587 5.74383C102.448 5.97568 102.373 6.24015 102.37 6.51034L102.3 11.1403C102.299 11.2191 102.282 11.2969 102.251 11.3692C102.219 11.4415 102.174 11.5069 102.117 11.5617C102.061 11.6165 101.994 11.6596 101.92 11.6885C101.847 11.7174 101.769 11.7317 101.69 11.7303L101.27 11.7203C100.663 11.7137 100.36 11.407 100.36 10.8003L100.38 4.06033C100.379 3.89893 100.425 3.74067 100.511 3.60407C100.597 3.46746 100.72 3.35815 100.866 3.28892C101.011 3.21969 101.174 3.1934 101.334 3.21313C101.494 3.23286 101.645 3.29779 101.77 3.40033L102.33 3.86033C102.637 4.11367 102.933 4.097 103.22 3.81033Z" fill="#EFAA32"/>
<path d="M117.62 3.37042C117.947 3.07709 118.303 3.01376 118.69 3.18042C119.103 3.34709 119.31 3.65042 119.31 4.09042L119.33 10.9704C119.33 11.3238 119.157 11.5338 118.81 11.6004C118.343 11.7004 117.88 11.6471 117.42 11.4404C117.267 11.3717 117.102 11.3379 116.936 11.3413C116.77 11.3448 116.607 11.3855 116.46 11.4604C109.61 14.9604 108.73 0.410423 116.6 3.56042C116.98 3.71376 117.32 3.65042 117.62 3.37042ZM114.984 10.1983C115.596 10.2229 116.194 9.96747 116.647 9.48828C117.1 9.00909 117.37 8.34537 117.398 7.64312C117.412 7.2954 117.366 6.94868 117.263 6.62276C117.16 6.29684 117.002 5.99811 116.797 5.74362C116.593 5.48914 116.346 5.28387 116.072 5.13956C115.797 4.99524 115.499 4.9147 115.196 4.90252C114.584 4.87796 113.986 5.13337 113.533 5.61256C113.08 6.09176 112.81 6.75548 112.782 7.45772C112.768 7.80545 112.814 8.15217 112.917 8.47809C113.02 8.804 113.178 9.10273 113.383 9.35722C113.587 9.61171 113.834 9.81697 114.109 9.96129C114.383 10.1056 114.681 10.1862 114.984 10.1983Z" fill="#EFAA32"/>
<path d="M125.24 3.99018C126.927 2.69018 128.357 2.74685 129.53 4.16018C129.783 4.46018 130.053 4.47352 130.34 4.20018C130.75 3.81018 131.32 3.37018 131.88 3.24018C136.33 2.20018 135.73 7.76018 135.55 10.8202C135.517 11.4068 135.207 11.7135 134.62 11.7402L134.36 11.7602C134.265 11.7642 134.17 11.7491 134.081 11.7159C133.993 11.6826 133.911 11.6319 133.842 11.5666C133.773 11.5013 133.718 11.4229 133.68 11.3359C133.642 11.2489 133.621 11.1552 133.62 11.0602L133.6 6.08018C133.6 6.02118 133.586 5.96298 133.56 5.91018C133.207 5.17685 132.7 4.84352 132.04 4.91018C130.82 5.03685 130.203 5.71352 130.19 6.94018L130.14 11.2202C130.133 11.6068 129.933 11.7902 129.54 11.7702L129.12 11.7502C128.547 11.7235 128.257 11.4202 128.25 10.8402L128.23 6.46018C128.223 5.63352 127.817 5.12018 127.01 4.92018C126.777 4.86685 126.543 4.87352 126.31 4.94018C125.343 5.21352 124.857 5.85018 124.85 6.85018L124.84 10.7602C124.84 11.3402 124.55 11.6635 123.97 11.7302L123.64 11.7702C123.113 11.8368 122.85 11.6035 122.85 11.0702L122.88 3.98018C122.88 3.87955 122.9 3.77993 122.94 3.68744C122.98 3.59495 123.038 3.51152 123.111 3.44226C123.184 3.37299 123.27 3.31935 123.365 3.2846C123.459 3.24986 123.56 3.23474 123.66 3.24018C124.06 3.26018 124.34 3.45018 124.5 3.81018C124.529 3.87655 124.574 3.93519 124.63 3.9817C124.685 4.0282 124.752 4.06136 124.823 4.07868C124.894 4.09601 124.969 4.09705 125.041 4.08172C125.113 4.06639 125.181 4.03509 125.24 3.99018Z" fill="#EFAA32"/>
<path d="M149.94 12.5503L150.23 11.7803C150.403 11.3337 150.263 11.1837 149.81 11.3303C145.983 12.557 143.96 11.3137 143.74 7.60034C143.587 5.08701 144.813 3.58034 147.42 3.08034C148.113 2.94701 148.733 3.13034 149.28 3.63034C149.407 3.74487 149.569 3.81243 149.738 3.82154C149.908 3.83066 150.075 3.78077 150.21 3.68034L150.5 3.46034C151.553 2.67368 152.097 2.93701 152.13 4.25034C152.203 6.81701 152.21 9.28034 152.15 11.6403C152.06 15.2003 147.48 15.6203 145.08 14.3003C144.968 14.2402 144.871 14.1551 144.797 14.0516C144.723 13.948 144.674 13.8287 144.653 13.7025C144.631 13.5764 144.639 13.4468 144.675 13.3234C144.711 13.2 144.774 13.0861 144.86 12.9903C145.147 12.677 145.49 12.607 145.89 12.7803C147.163 13.3203 148.437 13.3237 149.71 12.7903C149.817 12.7437 149.893 12.6637 149.94 12.5503ZM147.817 10.2087C148.13 10.2197 148.441 10.1617 148.735 10.0382C149.028 9.91466 149.297 9.72801 149.526 9.48887C149.756 9.24973 149.941 8.96279 150.072 8.64444C150.203 8.32608 150.276 7.98255 150.289 7.63344C150.301 7.28433 150.251 6.93648 150.143 6.60976C150.035 6.28305 149.87 5.98386 149.658 5.72929C149.445 5.47471 149.19 5.26974 148.906 5.12607C148.622 4.98239 148.315 4.90284 148.003 4.89194C147.691 4.88103 147.379 4.93899 147.086 5.06251C146.792 5.18602 146.523 5.37268 146.294 5.61182C146.064 5.85096 145.879 6.13789 145.748 6.45625C145.617 6.7746 145.544 7.11814 145.531 7.46724C145.519 7.81636 145.569 8.16421 145.677 8.49092C145.785 8.81764 145.95 9.11683 146.162 9.3714C146.375 9.62597 146.63 9.83095 146.914 9.97462C147.198 10.1183 147.505 10.1978 147.817 10.2087Z" fill="#EFAA32"/>
<path d="M162.32 3.43021L162.83 3.17021C162.93 3.11681 163.043 3.09024 163.156 3.09308C163.27 3.09592 163.381 3.12807 163.479 3.18641C163.576 3.24476 163.657 3.32732 163.713 3.4261C163.77 3.52488 163.8 3.63652 163.8 3.75021L163.84 10.8002C163.847 11.7535 163.423 12.0235 162.57 11.6102C161.857 11.2635 161.137 11.2935 160.41 11.7002C159.93 11.9669 159.42 12.0435 158.88 11.9302C152.74 10.6502 155.63 0.890208 160.81 3.45021C161.046 3.56495 161.305 3.62291 161.567 3.61944C161.83 3.61596 162.087 3.55116 162.32 3.43021ZM159.54 10.2195C160.152 10.2334 160.746 9.96654 161.19 9.47765C161.635 8.98876 161.893 8.31789 161.909 7.61261C161.917 7.26338 161.865 6.91622 161.757 6.59094C161.648 6.26566 161.484 5.96864 161.276 5.71684C161.067 5.46503 160.817 5.26337 160.539 5.12338C160.262 4.98338 159.964 4.90778 159.66 4.90091C159.048 4.88703 158.454 5.15388 158.01 5.64277C157.565 6.13165 157.307 6.80253 157.291 7.50781C157.283 7.85704 157.335 8.2042 157.443 8.52948C157.552 8.85475 157.716 9.15178 157.924 9.40358C158.133 9.65539 158.383 9.85704 158.661 9.99704C158.938 10.137 159.236 10.2126 159.54 10.2195Z" fill="#EFAA32"/>
<path d="M175.43 7.54036C175.43 8.71262 174.964 9.83686 174.135 10.6658C173.307 11.4947 172.182 11.9604 171.01 11.9604C170.43 11.9604 169.855 11.846 169.319 11.6239C168.782 11.4018 168.295 11.0762 167.885 10.6658C167.474 10.2553 167.149 9.76808 166.927 9.23182C166.704 8.69556 166.59 8.1208 166.59 7.54036C166.59 6.95992 166.704 6.38516 166.927 5.8489C167.149 5.31264 167.474 4.82538 167.885 4.41495C168.295 4.00451 168.782 3.67894 169.319 3.45681C169.855 3.23469 170.43 3.12036 171.01 3.12036C172.182 3.12036 173.307 3.58604 174.135 4.41495C174.964 5.24386 175.43 6.3681 175.43 7.54036ZM170.968 10.2201C171.605 10.23 172.219 9.95836 172.677 9.46476C173.135 8.97117 173.399 8.2961 173.41 7.58806C173.415 7.23747 173.359 6.88934 173.243 6.56354C173.128 6.23774 172.956 5.94065 172.737 5.68924C172.518 5.43784 172.256 5.23703 171.967 5.0983C171.678 4.95956 171.367 4.88561 171.052 4.88066C170.416 4.87068 169.801 5.14236 169.343 5.63596C168.885 6.12955 168.622 6.80463 168.61 7.51266C168.605 7.86325 168.661 8.21139 168.777 8.53719C168.893 8.86299 169.065 9.16007 169.284 9.41148C169.503 9.66288 169.764 9.86369 170.053 10.0024C170.342 10.1412 170.653 10.2151 170.968 10.2201Z" fill="#EFAA32"/>
<path d="M195.28 3.46022L195.86 3.16022C195.959 3.10854 196.07 3.0834 196.182 3.08723C196.294 3.09105 196.403 3.12372 196.499 3.18207C196.594 3.24041 196.673 3.32246 196.728 3.42024C196.782 3.51803 196.811 3.62825 196.81 3.74022L196.82 10.9102C196.827 11.8569 196.417 12.1002 195.59 11.6402L195.17 11.4002C195.035 11.3236 194.883 11.2817 194.728 11.2782C194.572 11.2747 194.419 11.3098 194.28 11.3802C192.38 12.3269 190.8 12.0869 189.54 10.6602C186.82 7.58022 189.4 1.38022 193.95 3.49022C194.159 3.58676 194.387 3.63423 194.618 3.62903C194.848 3.62384 195.075 3.5661 195.28 3.46022ZM192.539 10.1997C192.844 10.2056 193.147 10.1428 193.431 10.0151C193.715 9.88735 193.974 9.6971 194.194 9.4552C194.414 9.2133 194.591 8.9245 194.714 8.60528C194.836 8.28605 194.903 7.94267 194.91 7.59472C194.923 6.89204 194.692 6.21344 194.266 5.70822C193.841 5.203 193.256 4.91253 192.641 4.90072C192.336 4.89486 192.033 4.9576 191.749 5.08534C191.465 5.21309 191.206 5.40334 190.986 5.64524C190.766 5.88714 190.589 6.17594 190.467 6.49516C190.344 6.81439 190.277 7.15777 190.27 7.50572C190.257 8.20841 190.488 8.887 190.914 9.39222C191.339 9.89744 191.924 10.1879 192.539 10.1997Z" fill="#EFAA32"/>
<path d="M220.42 9.00039C221.353 10.3804 222.927 10.5471 225.14 9.50039C225.247 9.45373 225.34 9.4704 225.42 9.5504C226.033 10.1971 225.867 10.8237 224.92 11.4304C224.728 11.5495 224.522 11.6341 224.31 11.6804C215.43 13.7204 217.24 1.25039 223.35 3.29039C225.01 3.84373 226.007 5.06706 226.34 6.9604C226.368 7.11491 226.362 7.2736 226.322 7.4254C226.283 7.5772 226.211 7.71846 226.112 7.83936C226.013 7.96025 225.889 8.05786 225.749 8.12539C225.609 8.19293 225.456 8.22876 225.3 8.23039L220.79 8.29039C220.23 8.30373 220.107 8.54039 220.42 9.00039ZM220.5 6.5704L223.92 6.5504C223.963 6.54784 224.004 6.52881 224.034 6.4972C224.064 6.46559 224.08 6.4238 224.08 6.3804V6.2904C224.079 6.10898 224.034 5.9296 223.947 5.76253C223.86 5.59545 223.733 5.44396 223.573 5.31671C223.413 5.18947 223.224 5.08897 223.016 5.02096C222.808 4.95296 222.585 4.91878 222.36 4.9204H222.02C221.567 4.92363 221.134 5.07182 220.815 5.33244C220.496 5.59305 220.318 5.94478 220.32 6.3104V6.4004C220.32 6.42359 220.325 6.44654 220.334 6.46785C220.343 6.48915 220.357 6.50836 220.373 6.52428C220.39 6.54021 220.41 6.55251 220.432 6.56044C220.454 6.56837 220.477 6.57176 220.5 6.5704Z" fill="#EFAA32"/>
<path d="M239.53 8.28023C238.95 8.28023 238.82 8.52356 239.14 9.01023C239.387 9.39023 239.704 9.69022 240.09 9.91022C240.637 10.2169 241.21 10.2936 241.81 10.1402L243.89 9.60023C243.977 9.57649 244.068 9.57644 244.154 9.60008C244.241 9.62372 244.319 9.67017 244.382 9.73458C244.444 9.79899 244.488 9.87899 244.509 9.96619C244.53 10.0534 244.527 10.1446 244.5 10.2302C244.22 11.1169 243.58 11.6402 242.58 11.8002C234.19 13.1402 236.15 1.39022 242.1 3.29022C243.634 3.77689 244.607 4.90689 245.02 6.68023C245.267 7.72689 244.854 8.25356 243.78 8.26023L239.53 8.28023ZM239.17 6.56023L242.75 6.58023C242.803 6.58023 242.854 6.55915 242.892 6.52165C242.929 6.48414 242.95 6.43327 242.95 6.38022V6.30023C242.951 6.11578 242.904 5.9329 242.81 5.76208C242.716 5.59126 242.578 5.43587 242.403 5.30484C242.228 5.17382 242.021 5.06974 241.792 4.99859C241.563 4.92743 241.318 4.89061 241.07 4.89023H240.85C240.353 4.88945 239.877 5.03523 239.524 5.29571C239.172 5.55618 238.973 5.91015 238.97 6.28022V6.36022C238.97 6.41327 238.991 6.46414 239.029 6.50165C239.066 6.53915 239.117 6.56023 239.17 6.56023Z" fill="#EFAA32"/>
<path d="M250.26 3.76039C250.693 3.51372 251.16 3.30705 251.66 3.14039C252.62 2.83372 253.207 3.15372 253.42 4.10039C253.444 4.20952 253.44 4.32293 253.409 4.43028C253.378 4.53763 253.321 4.63552 253.242 4.71503C253.164 4.79454 253.067 4.85315 252.96 4.88552C252.853 4.9179 252.74 4.92301 252.63 4.90039C249.02 4.14039 249.82 8.64039 249.82 10.7204C249.827 11.3404 249.52 11.6837 248.9 11.7504L248.56 11.7904C248.107 11.8371 247.88 11.6304 247.88 11.1704L247.86 4.16039C247.86 3.47372 248.2 3.17705 248.88 3.27038C249.007 3.29038 249.1 3.35372 249.16 3.46038C249.427 3.92038 249.793 4.02039 250.26 3.76039Z" fill="#EFAA32"/>
<path d="M264.23 3.90031C264.54 3.56031 264.77 3.33031 265.26 3.23031C270.05 2.28031 269.25 8.01031 269.08 10.8403C269.047 11.427 268.74 11.737 268.16 11.7703L267.76 11.7903C267.681 11.7958 267.603 11.7851 267.528 11.759C267.454 11.733 267.386 11.692 267.328 11.6387C267.269 11.5853 267.223 11.5207 267.191 11.4488C267.158 11.3769 267.141 11.2991 267.14 11.2203L267.11 6.39031C267.103 5.57698 266.703 5.09031 265.91 4.93031C265.683 4.88365 265.457 4.88365 265.23 4.93031C264.17 5.15031 263.633 5.80365 263.62 6.89031L263.58 10.9803C263.577 11.1377 263.524 11.2895 263.431 11.4136C263.337 11.5377 263.207 11.6276 263.06 11.6703L262.61 11.8003C261.943 12.0003 261.61 11.7536 261.61 11.0603L261.62 4.11031C261.621 3.98995 261.647 3.87107 261.695 3.76088C261.744 3.65068 261.814 3.55145 261.902 3.46918C261.99 3.38692 262.093 3.32334 262.206 3.28228C262.32 3.24122 262.44 3.22354 262.56 3.23031C262.947 3.25031 263.203 3.42031 263.33 3.74031C263.543 4.27364 263.843 4.32698 264.23 3.90031Z" fill="#EFAA32"/>
<path d="M277.98 11.4903C274.707 12.557 272.807 11.4636 272.28 8.2103C271.873 5.71697 272.867 4.03697 275.26 3.1703C275.813 2.9703 276.357 2.9903 276.89 3.2303C277.837 3.6503 278.787 3.62697 279.74 3.1603C279.83 3.11839 279.928 3.09967 280.027 3.10586C280.126 3.11205 280.221 3.14295 280.305 3.19573C280.388 3.2485 280.458 3.32145 280.506 3.40787C280.554 3.49429 280.579 3.59141 280.58 3.6903L280.56 11.0103C280.56 11.6036 280.277 11.8203 279.71 11.6603L279.04 11.4703C278.687 11.3703 278.333 11.377 277.98 11.4903ZM276.266 10.1893C276.884 10.2066 277.484 9.94507 277.935 9.46237C278.385 8.97967 278.65 8.31529 278.669 7.6154C278.679 7.26884 278.628 6.92398 278.52 6.60053C278.412 6.27707 278.249 5.98136 278.039 5.73026C277.83 5.47915 277.578 5.27759 277.299 5.13708C277.021 4.99656 276.72 4.91984 276.414 4.9113C275.796 4.89405 275.196 5.15553 274.745 5.63823C274.295 6.12093 274.03 6.7853 274.011 7.4852C274.001 7.83176 274.052 8.17661 274.16 8.50007C274.268 8.82352 274.431 9.11924 274.641 9.37034C274.85 9.62144 275.102 9.82301 275.381 9.96352C275.659 10.104 275.96 10.1808 276.266 10.1893Z" fill="#EFAA32"/>
<path d="M286.36 3.73038C286.987 3.31038 287.677 3.08371 288.43 3.05038C288.661 3.04207 288.887 3.12406 289.058 3.27899C289.23 3.43392 289.335 3.64961 289.35 3.88038L289.38 4.27038C289.42 4.77038 289.193 4.97371 288.7 4.88038C284.97 4.20038 285.83 8.56038 285.82 10.7304C285.82 11.3437 285.517 11.6837 284.91 11.7504L284.56 11.7904C284.107 11.837 283.88 11.6304 283.88 11.1704L283.86 4.11038C283.86 3.42371 284.197 3.14371 284.87 3.27038C285.03 3.29705 285.157 3.38038 285.25 3.52038C285.55 3.96038 285.92 4.03038 286.36 3.73038Z" fill="#EFAA32"/>
<path d="M334.19 3.88038C336.28 2.27038 338.91 3.23038 339.05 6.03038C339.137 7.93038 339.133 9.62705 339.04 11.1204C339.03 11.2964 338.95 11.4612 338.819 11.5791C338.688 11.697 338.516 11.7586 338.34 11.7504L337.93 11.7304C337.39 11.7037 337.12 11.4204 337.12 10.8804V6.48038C337.12 5.56705 336.67 5.04038 335.77 4.90038C335.557 4.86705 335.337 4.88372 335.11 4.95038C334.117 5.24372 333.617 5.91038 333.61 6.95038L333.59 10.8704C333.589 11.0899 333.508 11.3012 333.362 11.4636C333.216 11.626 333.016 11.7282 332.8 11.7504L332.39 11.7904C331.87 11.8437 331.61 11.6104 331.61 11.0904L331.62 4.09038C331.621 3.97609 331.646 3.86322 331.692 3.75887C331.738 3.65451 331.805 3.5609 331.888 3.48392C331.972 3.40694 332.07 3.34823 332.177 3.31149C332.284 3.27474 332.398 3.26075 332.51 3.27038C332.903 3.29705 333.223 3.46705 333.47 3.78038C333.677 4.05372 333.917 4.08705 334.19 3.88038Z" fill="#EFAA32"/>
<path d="M353.42 5.46042C350.74 4.05042 348.28 6.11042 349.42 8.78042C349.634 9.28244 350.023 9.69018 350.516 9.92893C351.008 10.1677 351.57 10.2215 352.1 10.0804L353.64 9.66042C354.1 9.53375 354.353 9.70709 354.4 10.1804C354.467 10.8471 354.2 11.3004 353.6 11.5404C344.99 14.9404 345.2 -0.00957811 353.59 3.59042C354.077 3.79709 354.3 4.16709 354.26 4.70042L354.24 5.00042C354.232 5.09383 354.201 5.18393 354.15 5.26271C354.099 5.34149 354.03 5.40652 353.949 5.45203C353.868 5.49754 353.777 5.52211 353.685 5.52358C353.593 5.52504 353.502 5.50335 353.42 5.46042Z" fill="#EFAA32"/>
<path d="M25.9301 3.58036C25.9768 3.4737 26.0601 3.41703 26.1801 3.41036C28.8401 3.25036 30.4535 4.4737 31.0201 7.08036C31.2801 8.28036 30.9501 9.41703 30.0301 10.4904C27.0601 13.9604 20.7801 9.73036 23.5901 5.28036C24.0568 4.54703 24.7001 4.0937 25.5201 3.92036C25.7134 3.8737 25.8501 3.76036 25.9301 3.58036Z" fill="#EFAA32"/>
<path d="M96.1074 3.33048L95.9274 3.33017C95.4358 3.32931 95.0367 3.72708 95.0358 4.21861L95.0242 10.8786C95.0233 11.3701 95.4211 11.7693 95.9126 11.7702L96.0926 11.7705C96.5842 11.7713 96.9833 11.3736 96.9842 10.882L96.9958 4.22203C96.9967 3.7305 96.5989 3.33134 96.1074 3.33048Z" fill="#EFAA32"/>
<path d="M139.845 3.32059L139.685 3.32004C139.188 3.3183 138.784 3.71984 138.782 4.21689L138.759 10.8768C138.757 11.3739 139.158 11.7782 139.655 11.78L139.815 11.7805C140.312 11.7823 140.717 11.3807 140.719 10.8837L140.742 4.22373C140.743 3.72668 140.342 3.32233 139.845 3.32059Z" fill="#EFAA32"/>
<path d="M257.405 3.35076L257.105 3.34972C256.663 3.34817 256.304 3.70509 256.302 4.14692L256.278 10.9669C256.277 11.4087 256.634 11.7681 257.076 11.7697L257.376 11.7707C257.817 11.7723 258.177 11.4153 258.178 10.9735L258.202 4.15355C258.204 3.71173 257.847 3.35231 257.405 3.35076Z" fill="#EFAA32"/>
<path d="M297.29 11.4803C291.19 13.8303 292.34 6.98028 292.46 3.88028C292.465 3.7282 292.53 3.58427 292.641 3.47951C292.751 3.37475 292.898 3.31757 293.05 3.32028L293.34 3.33028C293.599 3.33288 293.847 3.43697 294.03 3.62019C294.213 3.80342 294.318 4.05117 294.32 4.31028L294.36 8.93028C294.367 9.83694 294.823 10.2636 295.73 10.2103L296.06 10.1903C297.167 10.1236 297.73 9.53361 297.75 8.42028L297.81 3.87028C297.812 3.7817 297.832 3.69451 297.871 3.61475C297.909 3.53499 297.965 3.46459 298.033 3.40844C298.102 3.35229 298.182 3.31174 298.268 3.28961C298.353 3.26748 298.443 3.26429 298.53 3.28028L298.93 3.35028C299.47 3.45028 299.733 3.77028 299.72 4.31028C299.68 6.13028 299.7 8.13028 299.78 10.3103C299.93 14.2903 297.09 15.8403 293.46 14.6403C293.289 14.5852 293.139 14.4771 293.033 14.3315C292.927 14.1859 292.87 14.0104 292.87 13.8303L292.88 13.3403C292.88 12.9336 293.08 12.7736 293.48 12.8603C294.94 13.1803 297 13.7003 297.71 11.9003C297.89 11.4469 297.75 11.3069 297.29 11.4803Z" fill="#EFAA32"/>
<path d="M327.397 3.34054L327.117 3.34005C326.665 3.33926 326.297 3.70575 326.296 4.15862L326.284 10.9386C326.283 11.3915 326.65 11.7593 327.103 11.76L327.383 11.7605C327.836 11.7613 328.203 11.3948 328.204 10.942L328.216 4.16197C328.217 3.7091 327.85 3.34133 327.397 3.34054Z" fill="#EFAA32"/>
<path d="M343.355 3.31993L343.115 3.32076C342.646 3.3224 342.267 3.70429 342.268 4.17373L342.292 10.8737C342.293 11.3431 342.675 11.7224 343.145 11.7207L343.385 11.7199C343.854 11.7182 344.233 11.3364 344.232 10.8669L344.208 4.16695C344.207 3.69751 343.825 3.31829 343.355 3.31993Z" fill="#EFAA32"/>
<path d="M4.11 17.1702C6.37989 17.1702 8.22 15.3301 8.22 13.0602C8.22 10.7903 6.37989 8.9502 4.11 8.9502C1.84011 8.9502 0 10.7903 0 13.0602C0 15.3301 1.84011 17.1702 4.11 17.1702Z" fill="#EFAA32"/>
<path d="M5.68005 29.4302C5.06672 27.8569 4.88338 26.3036 5.13005 24.7702C5.98338 19.4702 8.73671 15.6836 13.39 13.4102C16.7 11.7802 21.4 11.6102 24.91 13.1902C38.56 19.3102 35.89 39.4102 20.48 40.7502C14.5534 41.2636 9.92005 38.6636 6.58005 32.9502C5.99005 31.9502 6.12005 30.5502 5.68005 29.4302Z" fill="#EFAA32"/>
<path d="M44.9401 31.9802C47.2155 31.9802 49.0601 30.1356 49.0601 27.8602C49.0601 25.5848 47.2155 23.7402 44.9401 23.7402C42.6647 23.7402 40.8201 25.5848 40.8201 27.8602C40.8201 30.1356 42.6647 31.9802 44.9401 31.9802Z" fill="#EFAA32"/>
<path d="M341.51 40.3802C341.477 40.4002 341.443 40.4102 341.41 40.4102C341.37 40.4102 341.347 40.4302 341.34 40.4702C339.827 47.0169 337.037 52.8535 332.97 57.9802C331.903 59.3335 330.534 59.7035 328.86 59.0902C328.727 59.0435 328.604 58.9769 328.49 58.8902C326.964 57.7769 326.847 56.5335 328.14 55.1602C332.887 50.0869 336.064 43.5136 337.67 35.4402C337.71 35.2469 337.633 35.1269 337.44 35.0802L337.17 35.0102C337.004 34.9702 336.894 35.0302 336.84 35.1902C335.08 40.4002 333.28 45.7202 329.85 49.9902C329.024 51.0236 327.987 51.3102 326.74 50.8502C326.474 50.7502 326.23 50.6135 326.01 50.4402C324.71 49.4002 324.59 48.2335 325.65 46.9402C328.584 43.3802 330.644 39.4869 331.83 35.2602C331.839 35.2269 331.841 35.1919 331.836 35.1579C331.83 35.1239 331.817 35.0918 331.798 35.0639C331.779 35.036 331.754 35.0131 331.725 34.9969C331.696 34.9807 331.663 34.9716 331.63 34.9702L331.32 34.9602C331.147 34.9548 330.977 35.0029 330.834 35.098C330.69 35.193 330.581 35.3301 330.52 35.4902C328.934 39.6769 327.18 41.3369 325.26 40.4702C323.72 39.7836 323.204 38.6535 323.71 37.0802C323.729 37.0231 323.734 36.9624 323.725 36.9029C323.716 36.8435 323.693 36.787 323.658 36.7382C323.623 36.6894 323.577 36.6496 323.523 36.6221C323.47 36.5947 323.41 36.5803 323.35 36.5802H322.34C322.007 36.5802 321.84 36.7469 321.84 37.0802V41.3602C321.84 41.7402 322.03 41.9202 322.41 41.9002C322.577 41.8935 322.747 41.8802 322.92 41.8602C323.227 41.8136 323.52 41.8569 323.8 41.9902C326.8 43.4002 325.11 46.8102 322.55 47.3702C322.084 47.4702 321.85 47.7636 321.85 48.2502L321.84 58.4902C321.84 60.2102 320.997 61.2302 319.31 61.5502C319.01 61.6102 318.717 61.5836 318.43 61.4702C317.137 60.9702 316.49 60.0269 316.49 58.6402L316.5 49.8402C316.5 49.3735 316.277 49.2069 315.83 49.3402C314.74 49.6702 313.58 50.1702 312.44 50.0502C310.78 49.8702 309.65 47.9802 310.27 46.4202C311.12 44.3002 314.04 44.1602 315.97 43.6902C316.317 43.6035 316.49 43.3802 316.49 43.0202L316.5 37.3302C316.5 36.9435 316.31 36.7002 315.93 36.6002C315.59 36.5069 315.257 36.5169 314.93 36.6302C314.764 36.6854 314.613 36.7806 314.491 36.9078C314.369 37.035 314.279 37.1903 314.23 37.3602L313.75 39.0302C313.684 39.2622 313.568 39.4768 313.41 39.6588C313.252 39.8408 313.055 39.9856 312.835 40.083C312.614 40.1804 312.375 40.228 312.134 40.2223C311.893 40.2166 311.656 40.1579 311.44 40.0502C310.04 39.3402 309.35 37.8602 309.69 36.3302C310.277 33.6369 310.667 30.9769 310.86 28.3502C310.888 27.9847 311.006 27.6317 311.203 27.3225C311.4 27.0132 311.67 26.7573 311.989 26.5774C312.308 26.3974 312.667 26.2989 313.034 26.2907C313.4 26.2825 313.763 26.3648 314.09 26.5302C315.477 27.2369 315.927 28.4636 315.44 30.2102C315.373 30.4369 315.407 30.6535 315.54 30.8602C315.647 31.0135 315.757 31.0802 315.87 31.0602C316.072 31.0358 316.256 30.9307 316.384 30.7669C316.513 30.603 316.576 30.3929 316.56 30.1802C316.434 28.5869 316.457 27.1436 316.63 25.8502C316.803 24.5502 317.544 23.8169 318.85 23.6502C319.637 23.5502 320.397 23.8235 321.13 24.4702C321.344 24.6556 321.516 24.8843 321.635 25.1411C321.754 25.398 321.817 25.6772 321.82 25.9602L321.86 30.3702C321.867 30.7969 322.077 31.0569 322.49 31.1502C323.917 31.4902 324.634 32.3869 324.64 33.8402C324.647 35.2869 324.94 35.3502 325.52 34.0302C326.68 31.3969 327.587 28.8369 328.24 26.3502C328.62 24.9036 329.557 24.1569 331.05 24.1102C331.697 24.0902 332.29 24.3802 332.83 24.9802C333.497 25.7135 333.684 26.5569 333.39 27.5102L333.01 28.7902C332.85 29.2969 333.037 29.5502 333.57 29.5502C336.744 29.5636 340.234 29.5636 344.04 29.5502C347.43 29.5302 347.43 32.4902 347.38 35.0002C347.227 43.7669 346.63 50.8702 345.59 56.3102C345.05 59.1235 343.343 60.7569 340.47 61.2102C338.03 61.5902 335.86 59.4802 336.25 57.0902C336.279 56.9354 336.339 56.788 336.426 56.6573C336.514 56.5266 336.628 56.4152 336.76 56.3302C337.32 55.9635 337.94 55.7502 338.62 55.6902C339 55.6569 339.314 55.4935 339.56 55.2002C340.12 54.5602 340.464 53.7669 340.59 52.8202C341.117 48.8869 341.497 44.7936 341.73 40.5402C341.744 40.3602 341.67 40.3069 341.51 40.3802Z" fill="#5FA541"/>
<path d="M355.57 34.3203C355.73 31.3503 355.04 27.7603 359.55 27.7803C362.103 27.787 364.51 27.797 366.77 27.8103C367.163 27.8103 367.363 27.6136 367.37 27.2203C367.43 22.0703 374 22.9203 373.57 27.1603C373.53 27.587 373.723 27.8003 374.15 27.8003H384.66C386.127 27.8003 386.99 28.5203 387.25 29.9603C387.357 30.5203 387.277 31.0936 387.01 31.6803C386.829 32.0767 386.538 32.4123 386.172 32.6465C385.807 32.8807 385.382 33.0036 384.95 33.0003L361.77 32.9703C361.303 32.9703 361.077 33.2003 361.09 33.6603C361.34 42.3203 361.27 51.5403 356.76 58.7403C356.06 59.867 355.063 60.2736 353.77 59.9603C353.49 59.8936 353.237 59.767 353.01 59.5803C351.563 58.3603 351.303 56.9236 352.23 55.2703C353.003 53.8903 353.673 52.4103 354.24 50.8303C354.627 49.7636 354.367 49.5703 353.46 50.2503C351.82 51.4903 350.01 49.9803 349.92 48.2603C349.79 45.5803 352.98 44.5503 355 43.6903C355.173 43.6152 355.321 43.4913 355.425 43.3335C355.53 43.1757 355.587 42.9905 355.59 42.8003L355.61 39.5603C355.617 39.147 355.427 39.0203 355.04 39.1803C351.78 40.5303 350.69 37.1203 350.18 34.7603C350.075 34.2616 350.137 33.7422 350.358 33.2827C350.579 32.8233 350.945 32.4498 351.4 32.2203C353.107 31.367 354.327 32.0903 355.06 34.3903C355.353 35.3036 355.523 35.2803 355.57 34.3203Z" fill="#5FA541"/>
<path d="M403.92 30.1804C403.887 30.1604 403.853 30.1471 403.82 30.1404C403.727 30.1271 403.663 30.1671 403.63 30.2604C402.85 32.7471 402.137 35.2604 401.49 37.8004C401.388 38.211 401.452 38.6491 401.67 39.0204C403.63 42.2704 404.51 46.3504 403.17 49.9104C402.33 52.1404 399.17 53.7304 397.4 51.2404C396.693 50.2404 396.34 50.3537 396.34 51.5804L396.36 58.8204C396.36 60.4471 395.557 61.3971 393.95 61.6704C393.717 61.7037 393.483 61.6971 393.25 61.6504C391.99 61.3771 391.347 60.5971 391.32 59.3104C391.1 46.6637 391.097 36.5037 391.31 28.8304C391.37 26.7371 392.463 25.5937 394.59 25.4004C398.05 25.0804 401.65 24.8604 404.38 27.4804C404.66 27.7471 404.993 27.8804 405.38 27.8804H411.82C411.906 27.8806 411.991 27.8632 412.07 27.8294C412.148 27.7957 412.219 27.7462 412.277 27.6842C412.336 27.6221 412.38 27.5489 412.408 27.469C412.436 27.3892 412.447 27.3045 412.44 27.2204C412.11 22.8004 418.48 22.8704 418.09 27.2704C418.057 27.6571 418.23 27.8537 418.61 27.8604C422.58 27.9804 427.68 26.6404 427.31 32.9304C427.197 34.8104 426.38 35.8637 424.86 36.0904C424.587 36.1304 424.4 36.2771 424.3 36.5304C424.06 37.1404 424.16 37.7904 423.86 38.3704C423.207 39.6171 422.153 40.2504 420.7 40.2704C417.12 40.3304 413.593 40.3271 410.12 40.2604C408.78 40.2337 407.797 39.6371 407.17 38.4704C406.85 37.8704 406.95 37.2704 406.73 36.6904C406.597 36.3304 406.34 36.1037 405.96 36.0104C403.33 35.4004 403.8 32.3604 404.04 30.4504C404.053 30.3371 404.013 30.2471 403.92 30.1804ZM396.26 31.6704C396.64 36.8804 396.21 42.0004 396.38 47.1404C396.4 47.6737 396.673 47.9037 397.2 47.8304C397.48 47.7971 397.73 47.7004 397.95 47.5404C398.39 47.2271 398.623 46.8004 398.65 46.2604C398.73 44.6071 398.497 43.0037 397.95 41.4504C396.81 38.2004 397.23 34.6404 398.13 31.3304C398.19 31.0837 398.143 30.8671 397.99 30.6804C397.75 30.3871 397.443 30.3037 397.07 30.4304C396.483 30.6371 396.213 31.0504 396.26 31.6704ZM421.85 33.2304C421.85 33.1164 421.805 33.007 421.724 32.9263C421.644 32.8457 421.534 32.8004 421.42 32.8004H409.5C409.386 32.8004 409.277 32.8457 409.196 32.9263C409.115 33.007 409.07 33.1164 409.07 33.2304V34.8904C409.07 35.0044 409.115 35.1138 409.196 35.1945C409.277 35.2751 409.386 35.3204 409.5 35.3204H421.42C421.534 35.3204 421.644 35.2751 421.724 35.1945C421.805 35.1138 421.85 35.0044 421.85 34.8904V33.2304Z" fill="#5FA541"/>
<path d="M289.3 51.7003C289.5 53.027 289.873 53.077 290.42 51.8503C292.147 47.9703 293.04 43.507 293.1 38.4603C293.1 38.0403 292.89 37.8036 292.47 37.7503C289.3 37.4003 289.42 32.8503 292.28 32.6003C292.467 32.587 292.65 32.557 292.83 32.5103C293.177 32.417 293.35 32.1903 293.35 31.8303V27.7303C293.35 26.337 293.96 25.307 295.18 24.6403C295.554 24.4336 295.937 24.3703 296.33 24.4503C298.023 24.7703 298.87 25.7936 298.87 27.5203L298.86 31.8603C298.86 32.3403 299.1 32.567 299.58 32.5403C302.69 32.4103 306.76 31.8903 306.7 36.4403C306.62 42.0936 306.397 47.9236 306.03 53.9303C305.78 58.0503 304.75 61.4003 299.71 61.5903C298.01 61.6503 296.797 60.9136 296.07 59.3803C295.923 59.067 295.85 58.7303 295.85 58.3703C295.85 56.9903 296.544 56.297 297.93 56.2903C299.397 56.2836 300.203 55.507 300.35 53.9603C300.81 48.9803 301.053 43.7536 301.08 38.2803C301.08 37.9603 300.92 37.8003 300.6 37.8003L299.13 37.8203C298.992 37.8228 298.86 37.878 298.762 37.9748C298.663 38.0715 298.605 38.2023 298.6 38.3403C298.36 45.7803 297.09 54.1403 292.13 59.6203C291.692 60.1065 291.09 60.4137 290.441 60.482C289.793 60.5504 289.144 60.3752 288.62 59.9903L287.5 59.1703C287.214 58.9636 286.89 58.8736 286.53 58.9003L272.82 60.1403C271.373 60.2736 270.427 59.647 269.98 58.2603C269.8 57.6936 269.86 57.0903 270.16 56.4503C270.287 56.1697 270.488 55.9292 270.742 55.7547C270.996 55.5803 271.293 55.4784 271.6 55.4603L276.73 55.1203C276.901 55.1101 277.061 55.035 277.178 54.9105C277.295 54.7859 277.36 54.6213 277.36 54.4503V54.0803C277.36 53.5936 277.117 53.3503 276.63 53.3503L272.63 53.3403C271.283 53.3336 270.647 52.6603 270.72 51.3203L270.74 50.9803C270.794 49.9003 271.36 49.357 272.44 49.3503L276.97 49.3203C277.217 49.3136 277.337 49.1903 277.33 48.9503L277.31 48.5603C277.304 48.3603 277.197 48.2636 276.99 48.2703C269.42 48.6703 270.95 44.9103 270.81 39.3903C270.72 35.4203 274.28 35.5903 277.01 35.5403C277.203 35.5336 277.3 35.437 277.3 35.2503V34.9403C277.293 34.7003 277.17 34.577 276.93 34.5703L272.13 34.5603C271.143 34.5603 270.447 34.1103 270.04 33.2103C269.927 32.9503 269.893 32.6703 269.94 32.3703C270.147 31.1036 270.894 30.4736 272.18 30.4803L276.9 30.5303C276.996 30.5303 277.087 30.4924 277.155 30.4249C277.222 30.3573 277.26 30.2658 277.26 30.1703V29.8603C277.26 29.6603 277.16 29.5603 276.96 29.5603L272.99 29.6603C271.477 29.6936 270.67 28.9536 270.57 27.4403L270.55 27.1203C270.537 26.9251 270.562 26.7291 270.625 26.5437C270.687 26.3583 270.786 26.1871 270.915 26.0402C271.045 25.8933 271.202 25.7734 271.378 25.6876C271.554 25.6018 271.745 25.5517 271.94 25.5403C276.24 25.2736 280.45 24.8303 284.57 24.2103C286.01 23.9903 287.22 24.4736 288.2 25.6603C288.4 25.9003 288.517 26.177 288.55 26.4903C288.683 27.6436 288.173 28.307 287.02 28.4803L282.98 29.0703C282.883 29.0836 282.791 29.1192 282.71 29.1743C282.63 29.2295 282.563 29.3026 282.515 29.388C282.468 29.4733 282.441 29.5686 282.437 29.6661C282.432 29.7637 282.45 29.861 282.49 29.9503L282.62 30.2403C282.647 30.303 282.691 30.3563 282.746 30.3936C282.802 30.431 282.865 30.4507 282.93 30.4503L287.87 30.5303C288.91 30.5503 289.56 31.067 289.82 32.0803C289.88 32.3203 289.877 32.5636 289.81 32.8103C289.484 33.9636 288.72 34.547 287.52 34.5603L282.92 34.6003C282.851 34.6003 282.785 34.6277 282.736 34.6765C282.688 34.7252 282.66 34.7913 282.66 34.8603L282.67 35.1903C282.67 35.4503 282.8 35.5736 283.06 35.5603C285.62 35.4403 288.99 35.3803 289.27 38.8103C289.423 40.7836 289.423 42.8903 289.27 45.1303C289.05 48.3103 285.89 48.4303 283.44 48.0603C282.967 47.9936 282.727 48.197 282.72 48.6703V48.9303C282.72 49.2903 282.897 49.4736 283.25 49.4803C285.11 49.5103 288.89 48.8903 289.3 51.7003ZM276.91 40.3303C277.041 40.272 277.154 40.1786 277.235 40.0604C277.317 39.9422 277.364 39.804 277.371 39.6615C277.378 39.519 277.346 39.3778 277.277 39.2539C277.207 39.1299 277.105 39.0283 276.98 38.9603C276.713 38.807 276.35 38.8103 275.89 38.9703C275.798 39.0031 275.713 39.0547 275.642 39.1219C275.57 39.1891 275.513 39.2703 275.475 39.3605C275.436 39.4507 275.417 39.5479 275.418 39.6459C275.419 39.744 275.44 39.8408 275.48 39.9303C275.74 40.5036 276.217 40.637 276.91 40.3303ZM283.17 38.9703C282.923 39.0436 282.76 39.207 282.68 39.4603C282.54 39.927 282.707 40.2036 283.18 40.2903C283.587 40.3703 283.964 40.337 284.31 40.1903C284.39 40.1565 284.46 40.1037 284.514 40.0366C284.569 39.9695 284.606 39.8901 284.623 39.8053C284.64 39.7205 284.635 39.6329 284.61 39.5501C284.586 39.4673 284.541 39.3918 284.48 39.3303C284.113 38.9436 283.677 38.8236 283.17 38.9703ZM275.88 43.5403C275.754 43.5767 275.643 43.6515 275.561 43.7543C275.48 43.8571 275.432 43.9828 275.426 44.1139C275.419 44.2449 275.453 44.3748 275.524 44.4853C275.595 44.5958 275.698 44.6814 275.82 44.7303C276.247 44.9103 276.66 44.8903 277.06 44.6703C277.5 44.437 277.533 44.1536 277.16 43.8203C276.78 43.4936 276.353 43.4003 275.88 43.5403ZM282.81 43.7903C282.657 43.9436 282.597 44.127 282.63 44.3403C282.677 44.687 282.873 44.867 283.22 44.8803C283.573 44.887 283.897 44.837 284.19 44.7303C284.65 44.557 284.727 44.2803 284.42 43.9003C284.06 43.4603 283.617 43.357 283.09 43.5903C282.99 43.637 282.897 43.7036 282.81 43.7903ZM289.214 53.7102C289.208 53.5671 289.145 53.4325 289.039 53.336C288.933 53.2394 288.794 53.1888 288.651 53.1953L283.116 53.4466C283.045 53.4498 282.976 53.4669 282.912 53.497C282.847 53.5271 282.79 53.5695 282.742 53.6219C282.694 53.6743 282.657 53.7355 282.633 53.8022C282.609 53.8689 282.598 53.9397 282.601 54.0105L282.606 54.1104C282.612 54.2535 282.675 54.3881 282.781 54.4846C282.887 54.5812 283.027 54.6318 283.17 54.6253L288.704 54.374C288.775 54.3708 288.844 54.3537 288.909 54.3236C288.973 54.2935 289.031 54.2511 289.078 54.1987C289.126 54.1464 289.163 54.0851 289.187 54.0184C289.212 53.9517 289.222 53.8809 289.219 53.8101L289.214 53.7102Z" fill="#5FA541"/>
<path d="M195.655 25.6799L195.195 25.6807C194.577 25.6817 194.076 26.1841 194.077 26.8026L194.083 30.1226C194.084 30.7412 194.586 31.2417 195.205 31.2407L195.665 31.2399C196.283 31.2388 196.784 30.7365 196.783 30.1179L196.777 26.7979C196.776 26.1793 196.274 25.6788 195.655 25.6799Z" fill="#5FA541"/>
<path d="M199.921 25.6873L199.321 25.6936C198.752 25.6995 198.296 26.1655 198.302 26.7343L198.338 30.1941C198.344 30.7629 198.81 31.2192 199.379 31.2133L199.979 31.207C200.548 31.201 201.004 30.7351 200.998 30.1662L200.962 26.7064C200.956 26.1376 200.49 25.6813 199.921 25.6873Z" fill="#5FA541"/>
<path d="M57.0001 33.9702C59.2755 33.9702 61.1201 32.1256 61.1201 29.8502C61.1201 27.5748 59.2755 25.7302 57.0001 25.7302C54.7247 25.7302 52.8801 27.5748 52.8801 29.8502C52.8801 32.1256 54.7247 33.9702 57.0001 33.9702Z" fill="#EFAA32"/>
<path d="M123.77 31.3404C126.17 30.9904 127.99 32.1204 127.64 34.8204C127.28 37.6104 124.46 37.3604 122.38 37.2704C121.993 37.2504 121.753 37.4304 121.66 37.8104L118.57 50.9304C118.163 52.637 117.09 53.3704 115.35 53.1304C115.083 53.0904 114.827 53.0204 114.58 52.9204C113.313 52.4137 112.847 51.497 113.18 50.1704L116.24 37.8804C116.36 37.407 116.177 37.177 115.69 37.1904C111 37.3504 111.12 30.6104 116.65 31.3804C116.815 31.4028 116.982 31.364 117.119 31.2716C117.255 31.1792 117.352 31.0397 117.39 30.8804C117.53 30.327 117.647 29.7604 117.74 29.1804C118.23 26.0104 124.45 25.8604 122.89 30.2604C122.583 31.107 122.877 31.467 123.77 31.3404Z" fill="#5FA541"/>
<path d="M221.15 31.3002C221.643 31.3136 222.147 31.3069 222.66 31.2802C226.07 31.1002 227.08 37.5802 221.27 36.7802C220.877 36.7269 220.683 36.8969 220.69 37.2902L220.73 39.1302C220.737 39.5302 220.94 39.7202 221.34 39.7002C228.68 39.3002 233.84 43.2602 232.97 51.2202C232.49 55.6536 230.013 58.3069 225.54 59.1802C223.13 59.6602 221.7 56.9002 222.75 55.0002C223.72 53.2202 226.41 53.6702 227.09 51.6702C228.59 47.3002 225.37 44.9502 221.28 45.3502C220.84 45.3969 220.637 45.6402 220.67 46.0802C221.02 50.8902 221.55 59.2402 214.58 58.9102C211.327 58.7569 209.09 56.9702 207.87 53.5502C205.9 48.0002 209.49 42.6702 214.77 40.8202C215.13 40.6869 215.313 40.4302 215.32 40.0502L215.33 37.4202C215.337 37.0136 215.133 36.8102 214.72 36.8102H210.59C209.003 36.8036 208.217 36.0069 208.23 34.4202V33.7102C208.237 32.1102 209.04 31.3102 210.64 31.3102L214.67 31.3002C214.818 31.2998 214.961 31.2471 215.073 31.1517C215.185 31.0563 215.259 30.9245 215.28 30.7802C215.327 30.4602 215.347 30.1436 215.34 29.8302C215.22 26.5002 221.26 26.2902 220.67 30.7402C220.623 31.1069 220.783 31.2936 221.15 31.3002ZM215.16 53.1202L215.48 47.1702C215.481 47.1505 215.479 47.1307 215.473 47.112C215.466 47.0933 215.456 47.076 215.443 47.0612C215.43 47.0463 215.414 47.0341 215.397 47.0254C215.379 47.0167 215.36 47.0115 215.34 47.0102L215.21 47.0002C214.881 46.9818 214.551 47.0399 214.239 47.1713C213.928 47.3027 213.64 47.5048 213.393 47.7659C213.145 48.027 212.944 48.342 212.799 48.6929C212.655 49.0437 212.57 49.4234 212.55 49.8102L212.53 50.1802C212.508 50.5668 212.551 50.9532 212.657 51.3175C212.763 51.6817 212.929 52.0165 213.147 52.3027C213.364 52.5889 213.628 52.8208 213.924 52.9851C214.22 53.1494 214.541 53.2429 214.87 53.2602H215C215.02 53.2616 215.04 53.2591 215.058 53.2527C215.077 53.2464 215.094 53.2365 215.109 53.2235C215.124 53.2105 215.136 53.1947 215.145 53.1769C215.154 53.1592 215.159 53.1399 215.16 53.1202Z" fill="#5FA541"/>
<path d="M227.928 27.2986L227.375 27.4721C226.136 27.8602 225.447 29.1788 225.835 30.4173L228.287 38.242C228.675 39.4805 229.994 40.1699 231.232 39.7818L231.786 39.6083C233.024 39.2202 233.713 37.9016 233.325 36.6631L230.873 28.8383C230.485 27.5999 229.166 26.9105 227.928 27.2986Z" fill="#5FA541"/>
<path d="M178.88 40.0903C176.92 40.6903 175.45 40.0603 175.35 37.7603C175.21 34.7203 176.83 34.2803 179.28 34.0003C179.727 33.947 179.94 33.697 179.92 33.2503C179.78 30.6903 179.57 27.6203 183.22 27.6603C186.51 27.7003 185.89 30.8603 185.85 32.9803C185.837 33.447 186.06 33.657 186.52 33.6103C190.77 33.1703 194 34.4503 194.8 38.9803C195.8 44.5903 197.37 61.8903 186.31 59.1303C183.05 58.3103 184.09 52.8203 187.24 53.3103C187.49 53.3484 187.745 53.3362 187.99 53.2746C188.235 53.2129 188.466 53.1029 188.668 52.9512C188.87 52.7994 189.039 52.6088 189.167 52.3906C189.294 52.1723 189.377 51.9309 189.41 51.6803C189.877 48.167 189.907 44.537 189.5 40.7903C189.482 40.608 189.415 40.4335 189.306 40.2842C189.197 40.135 189.05 40.0164 188.88 39.9403C188.067 39.5803 187.12 39.4536 186.04 39.5603C185.647 39.6003 185.43 39.817 185.39 40.2103C184.77 46.0703 183.514 51.7236 181.62 57.1703C181.154 58.517 180.207 59.1503 178.78 59.0703C178.46 59.0503 178.147 58.987 177.84 58.8803C176.127 58.267 175.587 57.1103 176.22 55.4103C177.914 50.817 179.02 45.8903 179.54 40.6303C179.594 40.117 179.374 39.937 178.88 40.0903Z" fill="#5FA541"/>
<path d="M243.08 40.0803C242.447 40.2936 241.794 40.347 241.12 40.2403C240.926 40.2091 240.741 40.1356 240.579 40.025C240.417 39.9144 240.28 39.7694 240.18 39.6003C239.714 38.787 239.53 37.877 239.63 36.8703C239.86 34.4203 241.67 34.1803 243.62 33.9703C243.974 33.9303 244.147 33.7336 244.14 33.3803C244.08 30.4703 244.04 26.6503 248.48 27.8503C249.567 28.1503 250.114 28.8636 250.12 29.9903L250.14 32.8903C250.14 33.417 250.404 33.6536 250.93 33.6003C254.76 33.2303 258.02 34.3003 258.92 38.4803C259.7 42.087 259.89 46.017 259.49 50.2703C259.02 55.2203 257.66 60.3303 251.19 59.3003C248.18 58.8203 247.89 55.8003 249.56 53.8703C249.947 53.417 250.437 53.2336 251.03 53.3203C252.617 53.5536 253.51 52.8836 253.71 51.3103C254.137 47.8703 254.144 44.327 253.73 40.6803C253.715 40.5258 253.659 40.3779 253.568 40.2514C253.477 40.125 253.353 40.0246 253.21 39.9603C252.35 39.5736 251.384 39.4436 250.31 39.5703C249.904 39.617 249.677 39.8436 249.63 40.2503C249.024 45.9903 247.794 51.5803 245.94 57.0203C245.367 58.687 244.22 59.3436 242.5 58.9903C242.187 58.9236 241.884 58.8136 241.59 58.6603C240.304 57.9936 239.907 56.977 240.4 55.6103C242.207 50.6436 243.334 45.6503 243.78 40.6303C243.827 40.0903 243.594 39.907 243.08 40.0803Z" fill="#5FA541"/>
<path d="M104.34 50.7203L102.24 57.8403C101.82 59.247 100.873 59.9303 99.4002 59.8903C99.0668 59.877 98.7468 59.8036 98.4402 59.6703C96.7535 58.957 96.2502 57.7436 96.9302 56.0303C97.9168 53.537 98.7135 50.9103 99.3202 48.1503C99.4135 47.7303 99.2602 47.437 98.8602 47.2703L96.4002 46.2403C96.0802 46.107 95.8802 46.207 95.8002 46.5403C94.8902 50.3503 91.9502 57.5203 87.3902 58.0103C84.0302 58.3703 82.1502 55.3903 81.7402 52.3503C80.7868 45.197 83.9902 40.8303 91.3502 39.2503C91.8168 39.1503 92.0602 38.8603 92.0802 38.3803L92.1602 36.2203C92.1669 36.0489 92.1391 35.8779 92.0784 35.7174C92.0177 35.557 91.9253 35.4104 91.8069 35.2863C91.6884 35.1622 91.5462 35.0633 91.3887 34.9952C91.2312 34.9272 91.0617 34.8915 90.8902 34.8903L86.2102 34.8703C84.2835 34.8636 83.2535 33.9003 83.1202 31.9803C83.1068 31.807 83.1102 31.6336 83.1302 31.4603C83.3035 29.6736 84.2902 28.7403 86.0902 28.6603C88.1368 28.5736 90.2268 28.5603 92.3602 28.6203C99.1402 28.8003 97.7602 35.0903 97.0902 39.5103C97.0302 39.897 97.1802 40.167 97.5402 40.3203L99.8202 41.2703C100.234 41.4436 100.46 41.307 100.5 40.8603L100.86 36.3703C100.967 35.0703 101.67 34.4236 102.97 34.4303H103.61C105.337 34.437 106.127 35.3036 105.98 37.0303L105.45 43.3603C105.438 43.4994 105.467 43.6396 105.535 43.7639C105.602 43.8881 105.705 43.9911 105.83 44.0603C106.383 44.3603 106.93 44.6736 107.47 45.0003C110.48 46.8103 108.37 52.6303 105.13 50.4403C104.737 50.1736 104.473 50.267 104.34 50.7203ZM90.2202 45.0503C87.7302 45.5703 85.0502 49.0803 86.9402 51.4703C87.0146 51.5658 87.1098 51.6432 87.2186 51.6967C87.3274 51.7502 87.4472 51.7784 87.569 51.7794C87.6909 51.7803 87.8117 51.754 87.9227 51.7022C88.0336 51.6505 88.1319 51.5746 88.2102 51.4803C89.5035 49.9203 90.3368 47.9303 90.7102 45.5103C90.7635 45.117 90.6002 44.9636 90.2202 45.0503Z" fill="#5FA541"/>
<path d="M166.31 50.9102L164.23 57.8402C163.803 59.2602 162.85 59.9435 161.37 59.8902C161.103 59.8769 160.843 59.8269 160.59 59.7402C158.957 59.1735 158.39 58.0635 158.89 56.4102L161.3 48.4202C161.487 47.7935 161.273 47.3669 160.66 47.1402L158.83 46.4802C158.23 46.2602 157.847 46.4602 157.68 47.0802C156.927 49.9735 155.747 52.6235 154.14 55.0302C151.09 59.6102 144.89 58.9602 143.78 53.2002C142.3 45.5669 145.483 40.9169 153.33 39.2502C153.823 39.1435 154.077 38.8369 154.09 38.3302L154.14 36.1402C154.144 35.9783 154.116 35.8173 154.057 35.6664C153.998 35.5156 153.91 35.378 153.797 35.2616C153.684 35.1453 153.55 35.0525 153.401 34.9888C153.252 34.925 153.092 34.8915 152.93 34.8902L147.89 34.8602C146.057 34.8469 145.137 33.9235 145.13 32.0902L145.12 31.6402C145.107 29.7135 146.063 28.7202 147.99 28.6602C150.03 28.6002 152.09 28.5835 154.17 28.6102C161.29 28.7102 159.61 34.9702 159.1 39.7002C159.086 39.8181 159.111 39.9373 159.17 40.0401C159.23 40.1428 159.321 40.2235 159.43 40.2702L161.82 41.2702C162.24 41.4435 162.467 41.3035 162.5 40.8502L162.82 36.6802C162.96 34.9069 163.907 34.1635 165.66 34.4502L166.16 34.5302C167.487 34.7502 168.097 35.5302 167.99 36.8702L167.48 43.1802C167.44 43.6269 167.62 43.9569 168.02 44.1702C170.06 45.2502 171.57 46.3202 170.72 48.9702C170.127 50.7902 168.96 51.3002 167.22 50.5002C166.76 50.2802 166.457 50.4169 166.31 50.9102ZM151.88 45.0702C149.827 45.9102 148.647 47.4069 148.34 49.5602C148.247 50.2269 148.363 50.7469 148.69 51.1202C148.793 51.2398 148.922 51.3348 149.067 51.3982C149.212 51.4617 149.369 51.4922 149.528 51.4874C149.687 51.4826 149.843 51.4427 149.985 51.3706C150.127 51.2985 150.252 51.1959 150.35 51.0702C151.55 49.5302 152.337 47.7535 152.71 45.7402C152.843 45.0069 152.567 44.7835 151.88 45.0702Z" fill="#5FA541"/>
<path d="M258.27 31.6402C257.717 30.4069 258.037 29.4736 259.23 28.8402C259.777 28.5536 260.397 28.4302 261.09 28.4702C261.503 28.4946 261.902 28.6278 262.247 28.8562C262.591 29.0846 262.868 29.4 263.05 29.7702C265.063 33.8636 266.35 37.8402 266.91 41.7002C267.097 43.0202 266.563 43.9069 265.31 44.3602C265.063 44.4469 264.81 44.5069 264.55 44.5402C262.817 44.7669 261.817 44.0169 261.55 42.2902C261.023 38.8569 259.93 35.3069 258.27 31.6402Z" fill="#5FA541"/>
<path d="M137.018 31.8981L132.819 30.8041C131.477 30.4547 130.106 31.2589 129.757 32.6003L129.606 33.181C129.256 34.5224 130.06 35.8932 131.402 36.2426L135.602 37.3366C136.943 37.686 138.314 36.8818 138.663 35.5403L138.815 34.9597C139.164 33.6182 138.36 32.2475 137.018 31.8981Z" fill="#5FA541"/>
<path d="M198.056 32.1153L197.26 32.3137C196.038 32.6183 195.295 33.8557 195.599 35.0775L197.661 43.3444C197.965 44.5662 199.203 45.3098 200.424 45.0051L201.22 44.8067C202.442 44.5021 203.185 43.2647 202.881 42.0429L200.82 33.776C200.515 32.5542 199.278 31.8106 198.056 32.1153Z" fill="#5FA541"/>
<path d="M45.78 61.9503C45.5067 61.9636 45.25 61.9303 45.01 61.8503C37.49 59.257 33.89 54.3803 34.21 47.2203C34.2967 45.3203 35.0034 43.1136 36.33 40.6003C37.29 38.7803 38.5034 37.3503 39.97 36.3103C42.9967 34.1636 46.4767 33.2403 50.41 33.5403C52.67 33.7103 56.86 35.6603 58.41 37.3403C63.63 42.9936 64.32 49.077 60.48 55.5903C57.8134 60.1036 53.6067 62.3536 47.86 62.3403C47.4934 62.3403 47.1134 62.2636 46.72 62.1103C46.42 61.9903 46.1067 61.937 45.78 61.9503Z" fill="#EFAA32"/>
<path d="M66.2601 41.9802C68.5356 41.9802 70.3801 40.1356 70.3801 37.8602C70.3801 35.5848 68.5356 33.7402 66.2601 33.7402C63.9847 33.7402 62.1401 35.5848 62.1401 37.8602C62.1401 40.1356 63.9847 41.9802 66.2601 41.9802Z" fill="#EFAA32"/>
<path d="M368.12 55.2602L368.08 59.4302C368.077 59.6993 368.014 59.9653 367.895 60.2091C367.775 60.4528 367.603 60.6684 367.39 60.8402C366.59 61.4802 365.857 61.7169 365.19 61.5502C363.697 61.1769 362.943 60.2236 362.93 58.6902C362.883 54.2502 362.883 49.8236 362.93 45.4102C362.98 41.1802 368.07 41.9602 370.69 41.8802C371.29 41.8669 371.593 41.5569 371.6 40.9502L371.61 40.5602C371.61 40.0602 371.36 39.8102 370.86 39.8102H364.93C363.323 39.8102 362.437 39.0136 362.27 37.4202C362.25 37.1869 362.277 36.9636 362.35 36.7502C362.77 35.5969 363.593 35.0169 364.82 35.0102L384.73 34.8302C385.111 34.826 385.488 34.9102 385.83 35.0763C386.173 35.2423 386.472 35.4857 386.705 35.7872C386.938 36.0887 387.097 36.4401 387.171 36.8137C387.245 37.1873 387.231 37.5729 387.13 37.9402L386.99 38.4402C386.872 38.8692 386.616 39.2466 386.261 39.5128C385.906 39.779 385.473 39.9189 385.03 39.9102L377.36 39.8102C377.246 39.8085 377.133 39.8305 377.029 39.8748C376.924 39.9191 376.829 39.9847 376.751 40.0675C376.673 40.1503 376.613 40.2484 376.575 40.3556C376.537 40.4628 376.522 40.5768 376.53 40.6902C376.543 40.8036 376.56 40.9169 376.58 41.0302C376.693 41.5969 377.04 41.8736 377.62 41.8602C380.29 41.8202 386.14 41.0702 386.1 45.3902C386.067 48.9902 386.083 52.6502 386.15 56.3702C386.21 59.6102 384.21 61.5602 380.92 61.5102C379.1 61.4902 377.933 60.5002 377.42 58.5402C377.343 58.2458 377.387 57.9329 377.54 57.6702C377.98 56.9369 378.66 56.5902 379.58 56.6302C380 56.6436 380.287 56.4536 380.44 56.0602C380.587 55.7136 380.583 55.3569 380.43 54.9902C380.361 54.8276 380.233 54.6975 380.071 54.6268C379.909 54.5561 379.726 54.5502 379.56 54.6102C377.68 55.2702 376.38 54.5002 375.19 53.0902C374.603 52.3769 374.063 52.4102 373.57 53.1902C372.083 55.5369 370.487 56.1136 368.78 54.9202C368.347 54.6202 368.127 54.7336 368.12 55.2602ZM369.4 50.8102C370.24 49.7702 370.81 48.6702 371.11 47.5102C371.13 47.4331 371.132 47.3527 371.116 47.2747C371.1 47.1968 371.067 47.1234 371.019 47.06C370.971 46.9966 370.909 46.9448 370.838 46.9085C370.768 46.8722 370.69 46.8523 370.61 46.8502L368.62 46.8102C368.287 46.8036 368.12 46.9669 368.12 47.3002L368.11 50.3502C368.103 51.7369 368.533 51.8902 369.4 50.8102ZM380.41 50.7302C381.16 48.4802 380.24 45.9902 377.29 46.9202C376.21 47.2602 376.053 47.8502 376.82 48.6902C377.6 49.5502 378.583 50.3136 379.77 50.9802C380.083 51.1602 380.297 51.0769 380.41 50.7302Z" fill="#5FA541"/>
<path d="M134.54 51.4803C134.5 52.5536 134.427 53.647 134.32 54.7603C133.56 62.6203 121.92 61.5203 120.35 54.6503C119.06 48.9803 122.37 43.9503 128.61 44.0403C129.097 44.047 129.34 43.8103 129.34 43.3303L129.37 40.7703C129.377 39.257 130.137 38.5036 131.65 38.5103H132.21C133.643 38.517 134.367 39.2336 134.38 40.6603L134.41 44.0203C134.41 44.4203 134.59 44.707 134.95 44.8803C137.21 45.9803 141.6 47.0303 139.13 50.6003C138.17 51.9803 136.893 52.1436 135.3 51.0903C134.82 50.7703 134.567 50.9003 134.54 51.4803ZM129.48 50.6403C129.503 50.3761 129.453 50.1108 129.335 49.8731C129.218 49.6355 129.037 49.4346 128.814 49.2923C128.59 49.15 128.331 49.0718 128.066 49.0662C127.801 49.0605 127.54 49.1277 127.31 49.2603L125.91 50.0603C125.695 50.183 125.515 50.3586 125.388 50.5703C125.26 50.7821 125.188 51.0231 125.18 51.2703L125.12 52.8803C125.108 53.2303 125.222 53.573 125.443 53.8451C125.663 54.1171 125.975 54.3001 126.32 54.3603L127.56 54.5903C127.759 54.6258 127.963 54.6193 128.159 54.5713C128.356 54.5233 128.54 54.4347 128.7 54.3114C128.86 54.1881 128.992 54.0326 129.089 53.8551C129.185 53.6775 129.244 53.4817 129.26 53.2803L129.48 50.6403Z" fill="#5FA541"/>
<path d="M421.38 48.0903L421.39 55.5603C421.39 55.9869 421.603 56.2169 422.03 56.2503L422.33 56.2703C422.435 56.2815 422.54 56.2511 422.622 56.1856C422.704 56.1201 422.758 56.0248 422.77 55.9203L422.94 54.7503C423.213 52.8503 424.187 52.3703 425.86 53.3103C427.22 54.0769 427.77 55.2469 427.51 56.8203C426.72 61.6503 424.06 61.4303 420.09 61.3203C417.543 61.2536 416.197 59.8903 416.05 57.2303C415.883 54.0903 415.843 51.0303 415.93 48.0503C415.943 47.6369 415.74 47.4303 415.32 47.4303L414.57 47.4403C414.143 47.4403 413.913 47.6536 413.88 48.0803C413.49 53.5403 411.86 58.1703 406.59 60.4303C405.33 60.9703 404.173 60.8003 403.12 59.9203C401.54 58.6003 401.87 56.7803 403.68 55.9103C406.853 54.3836 408.403 51.6903 408.33 47.8303C408.329 47.7685 408.315 47.7076 408.289 47.6514C408.264 47.5952 408.227 47.5449 408.181 47.5037C408.135 47.4624 408.081 47.431 408.022 47.4115C407.964 47.392 407.902 47.3848 407.84 47.3903C405.853 47.5503 404.79 46.7169 404.65 44.8903C404.625 44.5572 404.67 44.2226 404.78 43.9073C404.89 43.5921 405.064 43.303 405.292 43.0581C405.519 42.8132 405.794 42.6177 406.1 42.4839C406.406 42.35 406.736 42.2807 407.07 42.2803H424.43C424.971 42.2806 425.491 42.4801 425.89 42.8403C426.583 43.4669 426.913 44.0936 426.88 44.7203C426.793 46.3269 425.987 47.2203 424.46 47.4003C423.693 47.4869 422.917 47.4903 422.13 47.4103C422.035 47.4004 421.939 47.4107 421.848 47.4405C421.758 47.4702 421.674 47.5187 421.603 47.5829C421.533 47.647 421.476 47.7254 421.438 47.8128C421.399 47.9002 421.38 47.9948 421.38 48.0903Z" fill="#5FA541"/>
</g>
<defs>
<clipPath id="clip0_76_165">
<rect width="428" height="63" fill="white"/>
</clipPath>
</defs>
</svg>
