<svg width="196" height="197" viewBox="0 0 196 197" fill="none" xmlns="http://www.w3.org/2000/svg">
<g clip-path="url(#clip0_13999_75028)">
<path d="M98.4057 77.1773C103.649 77.1773 108.233 74.2141 110.673 69.8345C111.861 67.7017 112.547 65.2324 112.547 62.6004C112.547 61.5367 112.434 60.5001 112.223 59.4961C110.841 52.9457 105.171 48.0234 98.4111 48.0234C91.651 48.0234 86.0518 52.886 84.6264 59.3767C84.3996 60.4133 84.2754 61.4932 84.2754 62.6004C84.2754 65.189 84.9341 67.6203 86.0896 69.726C88.514 74.1653 93.1305 77.1773 98.4165 77.1773H98.4057Z" fill="#424242"/>
<path d="M98 0C43.8759 0 0 44.0998 0 98.5C0 152.9 43.8759 197 98 197C152.124 197 196 152.9 196 98.5C196 44.0998 152.124 0 98 0ZM166.713 102.44L147.869 109.007C147.821 111.802 147.551 114.548 147.07 117.218L160.536 123.008C162.648 123.915 163.9 126.123 163.603 128.408L160.774 150.436C160.439 153.036 158.231 154.93 155.693 154.93C155.472 154.93 155.25 154.914 155.029 154.887C152.221 154.523 150.234 151.934 150.596 149.112L152.929 130.948L144.198 127.193C136.79 145.671 118.966 158.729 98.2106 158.729C77.4551 158.729 59.4641 145.552 52.1155 126.932L42.7798 130.948L45.1124 149.112C45.4742 151.934 43.4926 154.523 40.6848 154.887C40.4635 154.914 40.2421 154.93 40.0207 154.93C37.4776 154.93 35.2746 153.036 34.9398 150.436L32.1105 128.408C31.819 126.123 33.0716 123.915 35.1774 123.008L49.3024 116.93C48.8704 114.428 48.6166 111.867 48.5572 109.256L29.0004 102.44C26.7165 101.642 25.2964 99.352 25.588 96.937L27.5642 80.8351C27.9097 78.0077 30.4745 76.0051 33.2822 76.3524C36.0953 76.6998 38.0931 79.2776 37.7421 82.0996L36.2735 94.0607L49.405 98.6411C50.6576 91.8845 53.2332 85.6055 56.8454 80.0808L44.8316 68.2988C43.6221 67.1157 43.0714 65.4116 43.3576 63.7401L46.9914 42.3631C47.4666 39.5574 50.1177 37.6688 52.9092 38.1518C55.7007 38.6294 57.5797 41.294 57.0992 44.0998L53.9189 62.8066L63.3463 72.0488C66.5158 68.8632 70.101 66.1063 74.0156 63.8703C73.994 63.447 73.9833 63.0237 73.9833 62.6004C73.9833 48.8755 84.9279 37.7122 98.378 37.7122C111.828 37.7122 122.773 48.8755 122.773 62.6004C122.773 63.0943 122.756 63.5827 122.724 64.0711C126.358 66.1822 129.706 68.7546 132.691 71.7015L141.757 62.8121L138.577 44.1052C138.102 41.2994 139.975 38.6348 142.767 38.1572C145.558 37.6796 148.209 39.5628 148.685 42.3686L152.318 63.7455C152.605 65.417 152.048 67.1211 150.844 68.3042L139.263 79.6575C142.977 85.2201 145.634 91.5697 146.935 98.4077L159.403 94.0607L157.934 82.0996C157.588 79.2722 159.586 76.6998 162.394 76.3524C165.207 75.9997 167.766 78.0131 168.112 80.8351L170.093 96.937C170.39 99.352 168.97 101.642 166.681 102.44H166.713Z" fill="#424242"/>
</g>
<defs>
<clipPath id="clip0_13999_75028">
<rect width="196" height="197" fill="white"/>
</clipPath>
</defs>
</svg>
