<svg width="197" height="197" viewBox="0 0 197 197" fill="none" xmlns="http://www.w3.org/2000/svg">
<path d="M98.5 0C44.0998 0 0 44.0998 0 98.5C0 152.9 44.0998 197 98.5 197C152.9 197 197 152.9 197 98.5C197 44.0998 152.9 0 98.5 0ZM157.464 45.9558L134.942 68.5213L139.278 72.8629C145.487 79.0768 145.487 89.1439 139.278 95.3578L86.7288 147.951L93.8816 155.104C95.9493 157.177 95.9493 160.531 93.8816 162.604C91.8139 164.671 88.4601 164.671 86.3924 162.604L63.6424 139.854L54.2754 149.248L62.0306 157.008C64.1037 159.076 64.1037 162.435 62.036 164.509C59.9683 166.582 56.609 166.582 54.5413 164.509L31.4006 141.362C29.3275 139.295 29.3275 135.93 31.4006 133.862C33.4683 131.789 36.8276 131.789 38.8899 133.857L46.7807 141.753L56.1531 132.354L33.4303 109.631C31.3626 107.563 31.3626 104.204 33.4303 102.136C35.498 100.063 38.8519 100.063 40.9196 102.131L49.2554 110.472L101.816 57.8626C108.024 51.6487 118.086 51.6487 124.295 57.8626L127.448 61.0157L149.959 38.4503C152.026 36.3826 155.386 36.3772 157.453 38.4503C159.521 40.518 159.527 43.8773 157.459 45.9504L157.464 45.9558Z" fill="#424242"/>
<path fill-rule="evenodd" clip-rule="evenodd" d="M85.8837 59.2151C88.2268 56.8719 92.0258 56.8719 94.3689 59.2151L111.735 76.5815C114.078 78.9246 114.078 82.7236 111.735 85.0667C109.392 87.4099 105.593 87.4099 103.25 85.0667L85.8837 67.7003C83.5405 65.3572 83.5405 61.5582 85.8837 59.2151Z" fill="#424242"/>
<path fill-rule="evenodd" clip-rule="evenodd" d="M68.4791 74.4488C70.8223 72.1057 74.6213 72.1057 76.9644 74.4488L94.3308 91.8152C96.6739 94.1584 96.6739 97.9573 94.3308 100.3C91.9876 102.644 88.1887 102.644 85.8455 100.3L68.4791 82.9341C66.136 80.591 66.136 76.792 68.4791 74.4488Z" fill="#424242"/>
<path fill-rule="evenodd" clip-rule="evenodd" d="M53.8262 89.6444C56.1694 87.3013 59.9684 87.3013 62.3115 89.6444L79.6779 107.011C82.021 109.354 82.021 113.153 79.6779 115.496C77.3348 117.839 73.5358 117.839 71.1926 115.496L53.8262 98.1297C51.4831 95.7865 51.4831 91.9876 53.8262 89.6444Z" fill="#424242"/>
</svg>
