<svg width="197" height="197" viewBox="0 0 197 197" fill="none" xmlns="http://www.w3.org/2000/svg">
<g clip-path="url(#clip0_13999_75024)">
<path d="M98.5 0C44.1 0 0 44.1 0 98.5C0 152.9 44.1 197 98.5 197C152.9 197 197 152.9 197 98.5C197 44.1 152.9 0 98.5 0ZM111.7 49.2L112.9 47.9L112.8 44.9C112.7 41.6 113.1 37.7 113.8 36.3C114 35.8 114.5 35.2 114.9 34.8C115.9 33.9 117.8 33.9 119.5 34.7C121.3 35.5 124.9 39.2 126.7 41.9C127.5 43.1 128.6 45.2 129.1 46.5C129.7 48 130.2 48.9 130.6 49.1C131.6 49.6 135 52.8 136.4 54.6C138.1 56.8 140 60.4 141 63.2C142.1 66.5 142.3 70.8 141.4 74.1C139.3 82.4 133.5 87.9 125.8 88.9C118.5 89.9 112.3 85.9 109.1 78.2C107.5 74.5 107.1 72.2 106.9 67.8C106.7 59.7 108.5 52.8 111.7 49.2ZM60.4 62C61.7 56.3 65.3 50.4 69.1 47.4C70.4 46.4 70.8 45.9 71.2 44.7C73 39.3 77 34.5 81.3 32.7C83.2 31.9 84.1 31.9 85.3 32.5C86.9 33.3 87.6 34.8 88 38.1C88.3 40.3 88 44.5 87.4 46.8C87.2 47.6 87.3 48.1 88.3 50.3C90.2 54.2 90.9 58.3 91 64.2C91 73.6 87.8 81.9 82.8 85.1C77.4 88.6 70.2 87.3 65.4 81.9C63.7 79.9 61.5 75.5 60.7 72.4C59.9 69.2 59.8 64.6 60.4 62ZM49.3 128.5C47.4 129.4 43.1 129.3 40.6 128.4C33.4 125.8 28.1 119.1 26.3 110.1C25.8 107.8 25.9 102.2 26.4 99.8C27.2 96.1 29.5 91.4 31.4 89.8C31.7 89.6 31.9 89 31.9 88.3C31.9 87 32.6 83.9 33.3 81.8C34.8 77.8 37.6 74.7 40.4 74.1C41.3 73.9 42.3 74.1 43.3 74.6C44.8 75.4 46 79.1 47.1 86C47.2 86.7 47.5 87.1 47.9 87.3C48.3 87.5 49.5 88.5 50.6 89.5C53 91.8 60.2 101.9 61.8 105.3C62.8 107.2 62.9 107.7 62.9 109.5C62.9 113.4 62 115.3 58.5 118.8C57.1 120.2 55.2 122.3 54.4 123.5C52.6 126.1 51 127.7 49.3 128.5ZM133.8 147.5C132.9 156.2 128.5 162.1 120.9 164.6C119 165.2 117.8 165.4 114.9 165.5C110.7 165.7 107.7 165.3 102.5 163.8C97.7 162.4 95 162.5 88.5 164.1C80.5 166.1 76.9 166.4 72.9 165.4C65.9 163.6 59.5 157.6 57 150.4C55.4 146 55.8 140.7 57.8 136.9C59.5 133.7 61.5 131.9 69.3 126.5C75.9 122 77.8 119.7 80.2 113.7C83.6 105 86.3 101.7 91 100.6C93.3 100 99 100 101.3 100.6C107.7 102.1 111.3 106.3 113.6 114.8C115.2 120.7 116.6 122.8 123.4 129.5C128.9 134.9 130.8 137.2 132.1 139.9C133.6 142.6 134.1 145 133.8 147.5ZM167.4 117.3C164.1 126.3 159.9 130.1 152.8 130.5C148.7 130.7 145.3 129.4 142.3 126.3C141.5 125.4 139.8 123.2 138.6 121.3C137.4 119.4 135.7 117 134.8 115.8C132.5 112.9 131.9 111.2 132.2 108.2C132.4 106 132.5 105.6 133.6 103.6C135.6 100.2 140.5 94.2 143.6 91.5C146.7 88.8 148.9 87.7 152.4 87.2L154.5 86.9L155.5 84.8C157.5 80.8 160.1 77.6 161.9 76.9C165.3 75.5 169.5 80.7 170.3 87.3C170.5 89.4 170 93 169.1 95.1C168.6 96.3 168.5 97 168.6 97.3C169.2 98.7 169.8 101.8 169.9 104.5C170 108.3 169.3 112 167.4 117.3Z" fill="#424242"/>
</g>
<defs>
<clipPath id="clip0_13999_75024">
<rect width="197" height="197" fill="white"/>
</clipPath>
</defs>
</svg>
