<svg width="197" height="197" viewBox="0 0 197 197" fill="none" xmlns="http://www.w3.org/2000/svg">
<g clip-path="url(#clip0_13999_75032)">
<path d="M65.6341 76.5542C64.6681 76.2991 63.6966 76.1797 62.7415 76.1797C57.8409 76.1797 53.3799 79.3925 52.0937 84.2496C50.5633 90.0565 54.1451 96.0534 60.0768 97.6218C62.964 98.387 65.9706 97.9962 68.5375 96.5255C71.0774 95.0711 72.8791 92.7266 73.6172 89.9317C74.3553 87.1314 73.9428 84.2062 72.4504 81.6881C70.9417 79.1428 68.5212 77.3248 65.6341 76.5596V76.5542Z" fill="#424242"/>
<path d="M98.5 0C44.0998 0 0 44.0998 0 98.5C0 152.9 44.0998 197 98.5 197C152.9 197 197 152.9 197 98.5C197 44.0998 152.9 0 98.5 0ZM159.586 80.77C154.376 90.7014 147.148 97.9139 138.671 101.631C131.176 104.915 122.997 105.892 115.932 105.892C112.963 105.892 110.195 105.718 107.753 105.474C112.551 108.828 116.99 112.811 120.886 117.315C129.228 126.97 138.964 143.436 137.987 167.032C137.873 169.805 135.588 171.976 132.837 171.976C132.766 171.976 132.696 171.976 132.62 171.976C129.776 171.857 127.562 169.458 127.681 166.614C128.783 139.951 110.814 109.392 78.838 104.405C78.6101 104.367 78.3876 104.312 78.1759 104.253C77.0471 105.235 75.8097 106.12 74.4801 106.885C70.9417 108.914 67.0071 109.951 63.0129 109.951C61.0212 109.951 59.0132 109.69 57.0377 109.169C55.8764 108.866 54.7638 108.475 53.6947 108.014L38.6565 129.656C37.6525 131.1 36.0515 131.871 34.418 131.871C33.4032 131.871 32.3775 131.572 31.482 130.948C29.143 129.325 28.5623 126.113 30.1904 123.774L45.3914 101.897C40.6319 96.378 38.5697 88.726 40.556 81.215C43.7687 69.0423 56.3865 61.7809 68.6841 65.0209C74.6266 66.5893 79.6141 70.3502 82.7291 75.6089C84.4549 78.5232 85.4861 81.7035 85.8117 84.9596L159.25 50.9921C160.872 50.2431 162.772 50.3842 164.259 51.372C165.751 52.3597 166.625 54.0475 166.565 55.8384C166.316 63.5936 163.705 72.9226 159.586 80.7863V80.77Z" fill="#424242"/>
</g>
<defs>
<clipPath id="clip0_13999_75032">
<rect width="197" height="197" fill="white"/>
</clipPath>
</defs>
</svg>
